<?xml version="1.0" encoding="UTF-8" standalone="no"?>
<!-- Created with Inkscape (http://www.inkscape.org/) -->

<svg
   xmlns:dc="http://purl.org/dc/elements/1.1/"
   xmlns:cc="http://creativecommons.org/ns#"
   xmlns:rdf="http://www.w3.org/1999/02/22-rdf-syntax-ns#"
   xmlns:svg="http://www.w3.org/2000/svg"
   xmlns="http://www.w3.org/2000/svg"
   xmlns:sodipodi="http://sodipodi.sourceforge.net/DTD/sodipodi-0.dtd"
   xmlns:inkscape="http://www.inkscape.org/namespaces/inkscape"
   width="59.99894"
   height="58.471115"
   id="svg4963"
   version="1.1"
   inkscape:version="0.48.4 r9939"
   sodipodi:docname="Documento nuevo 17">
  <defs
     id="defs4965" />
  <sodipodi:namedview
     id="base"
     pagecolor="#ffffff"
     bordercolor="#666666"
     borderopacity="1.0"
     inkscape:pageopacity="0.0"
     inkscape:pageshadow="2"
     inkscape:zoom="0.35"
     inkscape:cx="-177.14339"
     inkscape:cy="194.94985"
     inkscape:document-units="px"
     inkscape:current-layer="layer1"
     showgrid="false"
     fit-margin-top="0"
     fit-margin-left="0"
     fit-margin-right="0"
     fit-margin-bottom="0"
     inkscape:window-width="1049"
     inkscape:window-height="740"
     inkscape:window-x="25"
     inkscape:window-y="25"
     inkscape:window-maximized="0" />
  <metadata
     id="metadata4968">
    <rdf:RDF>
      <cc:Work
         rdf:about="">
        <dc:format>image/svg+xml</dc:format>
        <dc:type
           rdf:resource="http://purl.org/dc/dcmitype/StillImage" />
        <dc:title></dc:title>
      </cc:Work>
    </rdf:RDF>
  </metadata>
  <g
     inkscape:label="Capa 1"
     inkscape:groupmode="layer"
     id="layer1"
     transform="translate(-527.14339,-668.84091)">
    <g
       id="g3241"
       transform="translate(680.14239,687.07603)"
       style="fill:#77c043;fill-opacity:1">
      <path
         inkscape:connector-curvature="0"
         d="m -152.833,7.818 v 31.038 c 0,0.763 0.617,1.38 1.38,1.38 h 56.903 c 0.762,0 1.379,-0.617 1.379,-1.38 V 7.818 h -59.662 z"
         id="path3243"
         style="fill:#77c043;fill-opacity:1" />
      <polygon
         points="-93.337,5.29 -93.337,-0.458 -102.916,-0.458 -107.685,5.29 "
         id="polygon3245"
         style="fill:#77c043;fill-opacity:1" />
      <polygon
         points="-105.817,-0.458 -114.124,-0.458 -118.893,5.29 -110.521,5.29 "
         id="polygon3247"
         style="fill:#77c043;fill-opacity:1" />
      <polygon
         points="-117.026,-0.458 -126.803,-0.458 -131.572,5.29 -121.73,5.29 "
         id="polygon3249"
         style="fill:#77c043;fill-opacity:1" />
      <polygon
         points="-129.7,-0.458 -137.322,-0.458 -142.091,5.29 -134.407,5.29 "
         id="polygon3251"
         style="fill:#77c043;fill-opacity:1" />
      <path
         inkscape:connector-curvature="0"
         d="m -143.847,-7.787 c -0.377,-0.646 -0.93,-1.293 -1.692,-1.293 h -6.081 c -0.762,0 -1.379,0.617 -1.379,1.379 v 7.242 1.207 4.542 h 8.075 l 4.707,-5.748 1.525,-1.954 -5.155,-5.375 z"
         id="path3253"
         style="fill:#77c043;fill-opacity:1" />
      <polygon
         points="-111.273,-15.459 -118.758,-14.16 -110.829,-7.677 -103.344,-8.975 "
         id="polygon3255"
         style="fill:#77c043;fill-opacity:1" />
      <polygon
         points="-122.353,-13.537 -130.19,-12.177 -122.261,-5.693 -114.426,-7.053 "
         id="polygon3257"
         style="fill:#77c043;fill-opacity:1" />
      <path
         inkscape:connector-curvature="0"
         d="m -93.039,-12.647 -0.687,-3.967 c -0.175,-1.013 -0.9,-1.732 -1.617,-1.607 l -12.334,2.14 7.93,6.485 5.728,-0.994 c 0.719,-0.126 1.156,-1.044 0.98,-2.057 z"
         id="path3259"
         style="fill:#77c043;fill-opacity:1" />
      <path
         inkscape:connector-curvature="0"
         d="m -134.326,-3.801 8.468,-1.269 -7.93,-6.484 -6.059,1.051 c -0.208,0.037 -0.383,0.154 -0.536,0.306 l 6.057,6.396 z"
         id="path3261"
         style="fill:#77c043;fill-opacity:1" />
    </g>
  </g>
</svg>
