<?xml version="1.0" encoding="UTF-8" standalone="no"?>
<!-- Created with Inkscape (http://www.inkscape.org/) -->

<svg
   xmlns:dc="http://purl.org/dc/elements/1.1/"
   xmlns:cc="http://creativecommons.org/ns#"
   xmlns:rdf="http://www.w3.org/1999/02/22-rdf-syntax-ns#"
   xmlns:svg="http://www.w3.org/2000/svg"
   xmlns="http://www.w3.org/2000/svg"
   xmlns:sodipodi="http://sodipodi.sourceforge.net/DTD/sodipodi-0.dtd"
   xmlns:inkscape="http://www.inkscape.org/namespaces/inkscape"
   width="44.759895"
   height="40"
   id="svg4923"
   version="1.1"
   inkscape:version="0.48.4 r9939"
   sodipodi:docname="industriales.svg">
  <defs
     id="defs4925" />
  <sodipodi:namedview
     id="base"
     pagecolor="#ffffff"
     bordercolor="#666666"
     borderopacity="1.0"
     inkscape:pageopacity="0.0"
     inkscape:pageshadow="2"
     inkscape:zoom="1.4"
     inkscape:cx="319.43633"
     inkscape:cy="-64.385829"
     inkscape:document-units="px"
     inkscape:current-layer="layer1"
     showgrid="false"
     fit-margin-top="0"
     fit-margin-left="0"
     fit-margin-right="0"
     fit-margin-bottom="0"
     inkscape:window-width="1920"
     inkscape:window-height="1028"
     inkscape:window-x="-8"
     inkscape:window-y="-8"
     inkscape:window-maximized="1" />
  <metadata
     id="metadata4928">
    <rdf:RDF>
      <cc:Work
         rdf:about="">
        <dc:format>image/svg+xml</dc:format>
        <dc:type
           rdf:resource="http://purl.org/dc/dcmitype/StillImage" />
        <dc:title />
      </cc:Work>
    </rdf:RDF>
  </metadata>
  <g
     inkscape:label="Capa 1"
     inkscape:groupmode="layer"
     id="layer1"
     transform="translate(-417.85701,-452.57686)">
    <g
       id="g3390"
       transform="matrix(0.49733078,0,0,0.49733078,415.37023,447.71098)"
       style="fill:#77c043;fill-opacity:1">
      <path
         style="fill:#77c043;fill-opacity:1"
         inkscape:connector-curvature="0"
         d="m 23.608,67.989 c 10.377,6.398 25.873,6.794 44.814,1.141 5.481,-1.635 17.9,-8.771 24.619,-14.713 0.074,-0.695 0.136,-1.565 0.159,-2.676 0.026,-0.214 0.061,-0.425 0.082,-0.64 1.546,-15.282 -7.63,-29.354 -21.806,-35.724 l -1.18,-5.593 c 0,0 -0.862,0.244 -2.127,0.571 -10.921,4.22 -26.778,16.154 -29.904,49.31 l -8.344,-3.421 c 0,0 4.928,-24.318 16.928,-35.627 3.722,-3.507 8.116,-6.376 12.51,-8.588 -0.193,0.002 -0.371,-0.002 -0.525,-0.018 -20.306,-2.054 -35.579,10.07 -41.33,29.501 l -3.466,15.614 -0.062,0.423 c 0.927,1.995 3.626,6.738 9.632,10.44 z"
         id="path3392" />
      <path
         style="fill:#77c043;fill-opacity:1"
         inkscape:connector-curvature="0"
         d="m 44.205,75.929 c -7.862,0 -15.669,-1.501 -22.272,-5.636 -5.423,-3.395 -8.372,-7.514 -9.833,-10.152 -1.516,2.117 -3.657,5.31 -5.247,8.523 -2.734,5.524 -2.486,8.588 1.036,10.289 24.842,11.999 33.157,14.2 46.852,7.597 0,0 23.832,-11.592 38.234,-23.38 1.1,-0.9 3.127,-5.141 1.277,-6.035 -7.122,6.045 -19.455,13.059 -25.018,14.718 -7.32,2.184 -16.209,4.076 -25.029,4.076 z"
         id="path3394" />
    </g>
  </g>
</svg>
