<?xml version="1.0" encoding="UTF-8" standalone="no"?>
<!-- Created with Inkscape (http://www.inkscape.org/) -->

<svg
   xmlns:dc="http://purl.org/dc/elements/1.1/"
   xmlns:cc="http://creativecommons.org/ns#"
   xmlns:rdf="http://www.w3.org/1999/02/22-rdf-syntax-ns#"
   xmlns:svg="http://www.w3.org/2000/svg"
   xmlns="http://www.w3.org/2000/svg"
   xmlns:sodipodi="http://sodipodi.sourceforge.net/DTD/sodipodi-0.dtd"
   xmlns:inkscape="http://www.inkscape.org/namespaces/inkscape"
   width="75.942001"
   height="100"
   id="svg4688"
   version="1.1"
   inkscape:version="0.48.4 r9939"
   sodipodi:docname="Documento nuevo 6">
  <defs
     id="defs4690" />
  <sodipodi:namedview
     id="base"
     pagecolor="#ffffff"
     bordercolor="#666666"
     borderopacity="1.0"
     inkscape:pageopacity="0.0"
     inkscape:pageshadow="2"
     inkscape:zoom="0.35"
     inkscape:cx="22.25671"
     inkscape:cy="104.28572"
     inkscape:document-units="px"
     inkscape:current-layer="layer1"
     showgrid="false"
     fit-margin-top="0"
     fit-margin-left="0"
     fit-margin-right="0"
     fit-margin-bottom="0"
     inkscape:window-width="504"
     inkscape:window-height="423"
     inkscape:window-x="50"
     inkscape:window-y="50"
     inkscape:window-maximized="0" />
  <metadata
     id="metadata4693">
    <rdf:RDF>
      <cc:Work
         rdf:about="">
        <dc:format>image/svg+xml</dc:format>
        <dc:type
           rdf:resource="http://purl.org/dc/dcmitype/StillImage" />
        <dc:title></dc:title>
      </cc:Work>
    </rdf:RDF>
  </metadata>
  <g
     inkscape:label="Capa 1"
     inkscape:groupmode="layer"
     id="layer1"
     transform="translate(-327.74329,-536.6479)">
    <g
       id="g4633"
       style="fill:#77c043;fill-opacity:1"
       transform="translate(327.74329,536.6479)">
      <path
         id="path4621"
         d="m 11.386,11.414 c 2.1,0 3.758,-1.714 3.758,-3.802 0,-2.071 -1.658,-3.771 -3.758,-3.771 -2.087,0 -3.772,1.701 -3.772,3.771 0,2.088 1.685,3.802 3.772,3.802 m 11.079,0 c 2.088,0 3.774,-1.714 3.774,-3.802 0,-2.071 -1.687,-3.771 -3.774,-3.771 -2.071,0 -3.757,1.701 -3.757,3.771 0,2.088 1.687,3.802 3.757,3.802 M 72.488,0 c 1.906,0 3.454,1.533 3.454,3.426 V 15.172 H 0.179 V 3.454 c 0,-1.893 1.548,-3.44 3.427,-3.44 L 72.488,0 z"
         inkscape:connector-curvature="0"
         style="fill:#77c043;fill-opacity:1" />
      <path
         id="path4623"
         d="M 37.472,82.671 C 50.96,82.671 61.875,71.755 61.875,58.27 61.875,44.796 50.96,33.868 37.472,33.868 24,33.867 13.084,44.796 13.084,58.27 13.084,71.755 24,82.671 37.472,82.671 M 0,99.972 V 23.918 C 0,22.025 1.532,20.49 3.428,20.49 h 68.894 c 1.893,0 3.428,1.535 3.428,3.428 V 100 L 0,99.972 z"
         inkscape:connector-curvature="0"
         style="fill:#77c043;fill-opacity:1" />
      <path
         id="path4625"
         d="m 57.248,52.037 c 0.497,1.784 0.772,3.649 0.772,5.608 0,11.304 -9.203,20.48 -20.521,20.48 -11.33,0 -20.505,-9.177 -20.505,-20.48 0,-2.112 0.319,-4.13 0.884,-6.036 v 0.041 c 1.315,1.423 3.179,2.308 5.279,2.308 1.824,0 3.456,-0.648 4.728,-1.781 h -0.028 c 1.284,1.133 2.943,1.781 4.752,1.781 1.879,0 3.592,-0.704 4.862,-1.921 v 0.028 c 1.272,1.188 2.971,1.893 4.879,1.893 1.935,0 3.716,-0.76 4.974,-2.017 v 0.026 c 1.286,1.258 3.039,1.99 4.976,1.99 1.878,0 3.634,-0.732 4.919,-1.948 l 0.029,0.028 z"
         inkscape:connector-curvature="0"
         style="fill:#77c043;fill-opacity:1" />
    </g>
  </g>
</svg>
