<?xml version="1.0" encoding="UTF-8" standalone="no"?>
<!-- Created with Inkscape (http://www.inkscape.org/) -->

<svg
   xmlns:dc="http://purl.org/dc/elements/1.1/"
   xmlns:cc="http://creativecommons.org/ns#"
   xmlns:rdf="http://www.w3.org/1999/02/22-rdf-syntax-ns#"
   xmlns:svg="http://www.w3.org/2000/svg"
   xmlns="http://www.w3.org/2000/svg"
   xmlns:sodipodi="http://sodipodi.sourceforge.net/DTD/sodipodi-0.dtd"
   xmlns:inkscape="http://www.inkscape.org/namespaces/inkscape"
   width="41.985981"
   height="40"
   id="svg4784"
   version="1.1"
   inkscape:version="0.48.4 r9939"
   sodipodi:docname="oficinas.svg">
  <defs
     id="defs4786" />
  <sodipodi:namedview
     id="base"
     pagecolor="#ffffff"
     bordercolor="#666666"
     borderopacity="1.0"
     inkscape:pageopacity="0.0"
     inkscape:pageshadow="2"
     inkscape:zoom="1.4"
     inkscape:cx="40.787859"
     inkscape:cy="80.705257"
     inkscape:document-units="px"
     inkscape:current-layer="layer1"
     showgrid="false"
     fit-margin-top="0"
     fit-margin-left="0"
     fit-margin-right="0"
     fit-margin-bottom="0"
     inkscape:window-width="1336"
     inkscape:window-height="704"
     inkscape:window-x="150"
     inkscape:window-y="150"
     inkscape:window-maximized="0" />
  <metadata
     id="metadata4789">
    <rdf:RDF>
      <cc:Work
         rdf:about="">
        <dc:format>image/svg+xml</dc:format>
        <dc:type
           rdf:resource="http://purl.org/dc/dcmitype/StillImage" />
        <dc:title />
      </cc:Work>
    </rdf:RDF>
  </metadata>
  <g
     inkscape:label="Capa 1"
     inkscape:groupmode="layer"
     id="layer1"
     transform="translate(-427.09243,-569.02204)">
    <g
       transform="matrix(0.50611129,0,0,0.50611129,-63.092342,443.61274)"
       id="g4749">
      <ellipse
         transform="translate(959.89259,233.02496)"
         id="ellipse3415"
         ry="6.3509998"
         rx="6.3010001"
         cy="21.115999"
         cx="42.280998"
         sodipodi:cx="42.280998"
         sodipodi:cy="21.115999"
         sodipodi:rx="6.3010001"
         sodipodi:ry="6.3509998"
         d="m 48.581998,21.115999 c 0,3.507561 -2.821053,6.351 -6.301,6.351 -3.479946,0 -6.301,-2.843439 -6.301,-6.351 0,-3.50756 2.821054,-6.351 6.301,-6.351 3.479947,0 6.301,2.84344 6.301,6.351 z"
         style="fill:#77c043;fill-opacity:1" />
      <rect
         id="rect3417"
         height="2.595"
         width="20.993"
         y="279.41296"
         x="1024.1356"
         style="fill:#77c043;fill-opacity:1" />
      <rect
         id="rect3419"
         height="2.595"
         width="20.993"
         y="275.63895"
         x="1026.1356"
         style="fill:#77c043;fill-opacity:1" />
      <rect
         id="rect3421"
         height="2.595"
         width="20.993"
         y="264.71896"
         x="1027.9846"
         style="fill:#77c043;fill-opacity:1" />
      <rect
         id="rect3423"
         height="2.595"
         width="20.993"
         y="260.94495"
         x="1026.1356"
         style="fill:#77c043;fill-opacity:1" />
      <rect
         id="rect3425"
         height="2.595"
         width="20.993"
         y="271.86496"
         x="1024.1356"
         style="fill:#77c043;fill-opacity:1" />
      <rect
         id="rect3427"
         height="2.595"
         width="20.993"
         y="268.09097"
         x="1026.1356"
         style="fill:#77c043;fill-opacity:1" />
      <polygon
         transform="translate(959.89259,233.02496)"
         id="polygon3429"
         points="91.597,56.553 91.597,54.644 91.597,50.248 8.639,50.248 8.639,54.644 8.639,56.553 8.639,93.799 12.177,93.799 12.177,56.553 88.059,56.553 88.059,93.799 91.597,93.799 "
         style="fill:#77c043;fill-opacity:1" />
      <path
         id="path3431"
         d="m 1015.2606,294.18796 h -2.961 l -0.399,-3.492 h -19.95301 l -0.262,3.492 h -2.599 c -2.391,0 -4.335,1.945 -4.335,4.335 v 21.301 h 3 v -21.301 c 0,-0.736 0.599,-1.335 1.335,-1.335 h 2.373 l -0.478,6.364 3.83,0.004 2.461,22.916 3.94601,0.109 0.074,-23.025 h 1.678 l -0.051,22.916 h 3.62 l 2.776,-22.916 4.049,-0.021 -0.724,-6.346 h 2.619 c 0.736,0 1.335,0.599 1.335,1.335 v 21.301 h 3 v -21.302 c 10e-4,-2.39 -1.944,-4.335 -4.334,-4.335 z"
         inkscape:connector-curvature="0"
         style="fill:#77c043;fill-opacity:1" />
      <polygon
         transform="translate(959.89259,233.02496)"
         id="polygon3433"
         points="55.609,46.156 53.187,29.042 30.685,29.016 28.855,46.156 25.633,46.156 24.633,49.024 32.589,49.024 32.589,48.483 32.961,43.582 34.352,43.619 33.95,48.983 50.331,48.983 49.711,43.551 51.142,43.551 51.757,48.983 51.784,48.983 51.784,49.024 59.739,49.024 58.739,46.156 "
         style="fill:#77c043;fill-opacity:1" />
      <polygon
         transform="translate(959.89259,233.02496)"
         id="polygon3435"
         points="22.167,38.817 23.122,40.867 23.122,49.056 21.145,49.056 21.145,40.867 "
         style="fill:#77c043;fill-opacity:1" />
    </g>
  </g>
</svg>
