<?xml version="1.0" encoding="UTF-8" standalone="no"?>
<!-- Created with Inkscape (http://www.inkscape.org/) -->

<svg
   xmlns:dc="http://purl.org/dc/elements/1.1/"
   xmlns:cc="http://creativecommons.org/ns#"
   xmlns:rdf="http://www.w3.org/1999/02/22-rdf-syntax-ns#"
   xmlns:svg="http://www.w3.org/2000/svg"
   xmlns="http://www.w3.org/2000/svg"
   xmlns:sodipodi="http://sodipodi.sourceforge.net/DTD/sodipodi-0.dtd"
   xmlns:inkscape="http://www.inkscape.org/namespaces/inkscape"
   width="99.25"
   height="99.25"
   id="svg5009"
   version="1.1"
   inkscape:version="0.48.4 r9939"
   sodipodi:docname="Documento nuevo 19">
  <defs
     id="defs5011" />
  <sodipodi:namedview
     id="base"
     pagecolor="#ffffff"
     bordercolor="#666666"
     borderopacity="1.0"
     inkscape:pageopacity="0.0"
     inkscape:pageshadow="2"
     inkscape:zoom="0.7"
     inkscape:cx="-123.15936"
     inkscape:cy="133.59208"
     inkscape:document-units="px"
     inkscape:current-layer="layer1"
     showgrid="false"
     fit-margin-top="0"
     fit-margin-left="0"
     fit-margin-right="0"
     fit-margin-bottom="0"
     inkscape:window-width="504"
     inkscape:window-height="423"
     inkscape:window-x="75"
     inkscape:window-y="75"
     inkscape:window-maximized="0" />
  <metadata
     id="metadata5014">
    <rdf:RDF>
      <cc:Work
         rdf:about="">
        <dc:format>image/svg+xml</dc:format>
        <dc:type
           rdf:resource="http://purl.org/dc/dcmitype/StillImage" />
        <dc:title></dc:title>
      </cc:Work>
    </rdf:RDF>
  </metadata>
  <g
     inkscape:label="Capa 1"
     inkscape:groupmode="layer"
     id="layer1"
     transform="translate(-376.08929,-622.73718)">
    <path
       inkscape:connector-curvature="0"
       d="m 475.33929,684.23218 c 0,-5.995 -3.757,-10.262 -5.435,-11.87 1.678,-1.607 5.435,-5.874 5.435,-11.869 0,-4.326 -2.527,-7.409 -4.76,-10.131 -1.625,-1.982 -3.03,-3.694 -3.019,-5.375 0.017,-2.047 0.14,-3.614 1.602,-5.131 2.124,-2.209 2.874,-4.388 2.292,-6.658 l -0.07,-0.276 -6.343,-6.232 -0.268,-0.067 c -2.26,-0.582 -4.452,0.167 -6.659,2.293 -1.519,1.46 -3.084,1.583 -5.151,1.597 -1.678,0 -3.382,-1.398 -5.356,-3.018 -2.72,-2.23 -5.803,-4.758 -10.128,-4.758 -5.87,0 -10.082,3.6 -11.765,5.326 -1.683,-1.726 -5.896,-5.326 -11.765,-5.326 -4.325,0 -7.408,2.528 -10.13,4.759 -1.975,1.619 -3.679,3.017 -5.375,3.017 -2.046,-0.014 -3.613,-0.137 -5.13,-1.597 -2.208,-2.124 -4.411,-2.869 -6.659,-2.293 l -0.266,0.069 -6.343,6.23 -0.072,0.277 c -0.58,2.269 0.167,4.446 2.294,6.659 1.458,1.517 1.583,3.083 1.597,5.13 0.012,1.682 -1.391,3.394 -3.016,5.376 -2.232,2.72 -4.76,5.805 -4.76,10.129 0,5.995 3.757,10.262 5.436,11.869 -1.679,1.608 -5.436,5.875 -5.436,11.87 0,4.326 2.53,7.408 4.76,10.131 1.625,1.979 3.027,3.691 3.016,5.371 -0.014,2.049 -0.138,3.615 -1.597,5.135 -2.126,2.208 -2.875,4.387 -2.294,6.658 l 0.072,0.276 6.343,6.229 0.263,0.068 c 2.254,0.575 4.455,-0.168 6.661,-2.29 1.517,-1.462 3.083,-1.585 5.152,-1.602 1.675,0 3.379,1.399 5.354,3.019 2.722,2.229 5.806,4.76 10.13,4.76 5.869,0 10.082,-3.602 11.765,-5.325 1.683,1.724 5.895,5.325 11.765,5.325 4.325,0 7.408,-2.527 10.128,-4.76 1.975,-1.619 3.682,-3.019 5.378,-3.019 2.046,0.017 3.613,0.14 5.13,1.602 1.733,1.666 3.434,2.478 5.199,2.478 0.003,0 0.003,0 0.003,0 0.482,0 0.974,-0.063 1.457,-0.188 l 0.268,-0.068 6.343,-6.229 0.07,-0.276 c 0.582,-2.271 -0.168,-4.45 -2.292,-6.658 -1.462,-1.518 -1.585,-3.086 -1.602,-5.135 -0.012,-1.678 1.392,-3.392 3.019,-5.371 2.229,-2.721 4.759,-5.804 4.759,-10.131 z m -17.488,-43.897 v 64.297 h -64.156 v -64.297 h 64.156 z"
       id="path3220"
       style="fill:#77c043;fill-opacity:1" />
  </g>
</svg>
