<?xml version="1.0" encoding="UTF-8" standalone="no"?>
<!-- Created with Inkscape (http://www.inkscape.org/) -->

<svg
   xmlns:dc="http://purl.org/dc/elements/1.1/"
   xmlns:cc="http://creativecommons.org/ns#"
   xmlns:rdf="http://www.w3.org/1999/02/22-rdf-syntax-ns#"
   xmlns:svg="http://www.w3.org/2000/svg"
   xmlns="http://www.w3.org/2000/svg"
   xmlns:sodipodi="http://sodipodi.sourceforge.net/DTD/sodipodi-0.dtd"
   xmlns:inkscape="http://www.inkscape.org/namespaces/inkscape"
   width="39.999969"
   height="40"
   id="svg5009"
   version="1.1"
   inkscape:version="0.48.4 r9939"
   sodipodi:docname="presidenciales.svg">
  <defs
     id="defs5011" />
  <sodipodi:namedview
     id="base"
     pagecolor="#ffffff"
     bordercolor="#666666"
     borderopacity="1.0"
     inkscape:pageopacity="0.0"
     inkscape:pageshadow="2"
     inkscape:zoom="1"
     inkscape:cx="-38.429433"
     inkscape:cy="104.77978"
     inkscape:document-units="px"
     inkscape:current-layer="layer1"
     showgrid="false"
     fit-margin-top="0"
     fit-margin-left="0"
     fit-margin-right="0"
     fit-margin-bottom="0"
     inkscape:window-width="1920"
     inkscape:window-height="1028"
     inkscape:window-x="-8"
     inkscape:window-y="-8"
     inkscape:window-maximized="1" />
  <metadata
     id="metadata5014">
    <rdf:RDF>
      <cc:Work
         rdf:about="">
        <dc:format>image/svg+xml</dc:format>
        <dc:type
           rdf:resource="http://purl.org/dc/dcmitype/StillImage" />
        <dc:title />
      </cc:Work>
    </rdf:RDF>
  </metadata>
  <g
     inkscape:label="Capa 1"
     inkscape:groupmode="layer"
     id="layer1"
     transform="translate(-376.08932,-681.98718)">
    <path
       inkscape:connector-curvature="0"
       d="m 416.08929,706.77106 c 0,-2.41612 -1.51416,-4.13582 -2.19043,-4.78388 0.67627,-0.64766 2.19043,-2.36736 2.19043,-4.78348 0,-1.74347 -1.01844,-2.98599 -1.91839,-4.08302 -0.65491,-0.79879 -1.22116,-1.48876 -1.21672,-2.16625 0.007,-0.82498 0.0564,-1.45652 0.64564,-2.0679 0.85602,-0.89028 1.15829,-1.76847 0.92373,-2.68333 l -0.0282,-0.11123 -2.55638,-2.51164 -0.10801,-0.027 c -0.91083,-0.23456 -1.79425,0.0673 -2.68373,0.92413 -0.61219,0.58841 -1.24292,0.63798 -2.07597,0.64362 -0.67627,0 -1.36302,-0.56342 -2.15858,-1.21632 -1.09623,-0.89874 -2.33875,-1.91758 -4.08182,-1.91758 -2.36574,0 -4.06327,1.45088 -4.74156,2.1465 -0.67829,-0.69562 -2.37622,-2.1465 -4.74156,-2.1465 -1.74307,0 -2.98559,1.01884 -4.08262,1.91798 -0.79597,0.6525 -1.48272,1.21592 -2.16625,1.21592 -0.82458,-0.006 -1.45612,-0.0552 -2.0675,-0.64362 -0.88988,-0.85602 -1.77774,-1.15627 -2.68373,-0.92413 l -0.10721,0.0278 -2.55637,2.51084 -0.029,0.11163 c -0.23375,0.91446 0.0673,1.79184 0.92454,2.68373 0.5876,0.61139 0.63798,1.24252 0.64362,2.06751 0.005,0.67788 -0.5606,1.36786 -1.21551,2.16665 -0.89955,1.09622 -1.91839,2.33954 -1.91839,4.08221 0,2.41612 1.51416,4.13582 2.19083,4.78348 -0.67667,0.64806 -2.19083,2.36776 -2.19083,4.78388 0,1.74348 1.01965,2.98559 1.91839,4.08302 0.65491,0.79758 1.21995,1.48756 1.21551,2.16464 -0.006,0.82579 -0.0556,1.45692 -0.64362,2.06952 -0.85683,0.88987 -1.15869,1.76806 -0.92454,2.68332 l 0.029,0.11124 2.55637,2.51043 0.106,0.0274 c 0.90841,0.23174 1.79546,-0.0677 2.68453,-0.92292 0.61139,-0.58922 1.24252,-0.63879 2.07638,-0.64564 0.67506,0 1.36181,0.56383 2.15778,1.21672 1.09703,0.89834 2.33995,1.91839 4.08262,1.91839 2.36534,0 4.06327,-1.45169 4.74156,-2.1461 0.67829,0.69482 2.37582,2.1461 4.74156,2.1461 1.74307,0 2.98559,-1.01844 4.08182,-1.91839 0.79597,-0.65249 1.48392,-1.21672 2.16745,-1.21672 0.82459,0.007 1.45612,0.0564 2.06751,0.64564 0.69844,0.67143 1.38398,0.99869 2.09531,0.99869 10e-4,0 10e-4,0 10e-4,0 0.19426,0 0.39255,-0.0254 0.58721,-0.0758 l 0.10801,-0.0274 2.55637,-2.51043 0.0282,-0.11124 c 0.23456,-0.91526 -0.0677,-1.79345 -0.92373,-2.68332 -0.58922,-0.61179 -0.63879,-1.24373 -0.64564,-2.06952 -0.005,-0.67628 0.56101,-1.36706 1.21673,-2.16464 0.89833,-1.09662 1.91798,-2.33914 1.91798,-4.08302 z m -7.04806,-17.69149 v 25.91315 h -25.85632 v -25.91315 h 25.85632 z"
       id="path3220"
       style="fill:#77c043;fill-opacity:1" />
  </g>
</svg>
