<?xml version="1.0" encoding="UTF-8" standalone="no"?>
<!-- Created with Inkscape (http://www.inkscape.org/) -->

<svg
   xmlns:dc="http://purl.org/dc/elements/1.1/"
   xmlns:cc="http://creativecommons.org/ns#"
   xmlns:rdf="http://www.w3.org/1999/02/22-rdf-syntax-ns#"
   xmlns:svg="http://www.w3.org/2000/svg"
   xmlns="http://www.w3.org/2000/svg"
   xmlns:sodipodi="http://sodipodi.sourceforge.net/DTD/sodipodi-0.dtd"
   xmlns:inkscape="http://www.inkscape.org/namespaces/inkscape"
   width="64"
   height="56.02169"
   id="svg4853"
   version="1.1"
   inkscape:version="0.48.4 r9939"
   sodipodi:docname="Documento nuevo 13">
  <defs
     id="defs4855" />
  <sodipodi:namedview
     id="base"
     pagecolor="#ffffff"
     bordercolor="#666666"
     borderopacity="1.0"
     inkscape:pageopacity="0.0"
     inkscape:pageshadow="2"
     inkscape:zoom="0.35"
     inkscape:cx="-18"
     inkscape:cy="59.439417"
     inkscape:document-units="px"
     inkscape:current-layer="layer1"
     showgrid="false"
     fit-margin-top="0"
     fit-margin-left="0"
     fit-margin-right="0"
     fit-margin-bottom="0"
     inkscape:window-width="504"
     inkscape:window-height="423"
     inkscape:window-x="200"
     inkscape:window-y="200"
     inkscape:window-maximized="0" />
  <metadata
     id="metadata4858">
    <rdf:RDF>
      <cc:Work
         rdf:about="">
        <dc:format>image/svg+xml</dc:format>
        <dc:type
           rdf:resource="http://purl.org/dc/dcmitype/StillImage" />
        <dc:title></dc:title>
      </cc:Work>
    </rdf:RDF>
  </metadata>
  <g
     inkscape:label="Capa 1"
     inkscape:groupmode="layer"
     id="layer1"
     transform="translate(-368,-535.77991)">
    <g
       id="g3138"
       transform="translate(368,531.7906)"
       style="fill:#77c043;fill-opacity:1">
      <path
         inkscape:connector-curvature="0"
         d="M 63.541,15.815 64,13.843 21.833,4.016 C 21.328,3.898 20.815,4.181 20.646,4.672 l -3.729,10.846 c -1.704,0.138 -3.053,1.551 -3.053,3.289 0,0.558 0.151,1.074 0.396,1.536 C 6.15,21.523 0,26.959 0,33.477 c 0,0.256 0.01,0.512 0.028,0.763 0.039,0.528 0.479,0.938 1.01,0.938 h 33.038 c 0.529,0 0.969,-0.406 1.01,-0.933 0.02,-0.254 0.031,-0.51 0.031,-0.768 0,-6.707 -6.515,-12.258 -14.972,-13.216 0.217,-0.441 0.35,-0.931 0.35,-1.453 0,-1.197 -0.645,-2.239 -1.598,-2.822 l 3.366,-9.79 41.278,9.619 z"
         id="path3140"
         style="fill:#77c043;fill-opacity:1" />
      <rect
         x="1.699"
         y="37.007999"
         width="2.0239999"
         height="3.9890001"
         id="rect3142"
         style="fill:#77c043;fill-opacity:1" />
      <rect
         x="1.699"
         y="43.344002"
         width="2.0239999"
         height="3.9920001"
         id="rect3144"
         style="fill:#77c043;fill-opacity:1" />
      <rect
         x="1.699"
         y="49.682999"
         width="2.0239999"
         height="3.9909999"
         id="rect3146"
         style="fill:#77c043;fill-opacity:1" />
      <rect
         x="1.699"
         y="56.021"
         width="2.0239999"
         height="3.99"
         id="rect3148"
         style="fill:#77c043;fill-opacity:1" />
      <rect
         x="9.1219997"
         y="37.007999"
         width="2.0239999"
         height="3.9890001"
         id="rect3150"
         style="fill:#77c043;fill-opacity:1" />
      <rect
         x="9.1219997"
         y="43.344002"
         width="2.0239999"
         height="3.9920001"
         id="rect3152"
         style="fill:#77c043;fill-opacity:1" />
      <rect
         x="9.1219997"
         y="49.682999"
         width="2.0239999"
         height="3.9909999"
         id="rect3154"
         style="fill:#77c043;fill-opacity:1" />
      <rect
         x="9.1219997"
         y="56.021"
         width="2.0239999"
         height="3.99"
         id="rect3156"
         style="fill:#77c043;fill-opacity:1" />
      <rect
         x="16.546"
         y="37.007999"
         width="2.0239999"
         height="3.9890001"
         id="rect3158"
         style="fill:#77c043;fill-opacity:1" />
      <rect
         x="16.546"
         y="43.344002"
         width="2.0239999"
         height="3.9920001"
         id="rect3160"
         style="fill:#77c043;fill-opacity:1" />
      <rect
         x="16.546"
         y="49.682999"
         width="2.0239999"
         height="3.9909999"
         id="rect3162"
         style="fill:#77c043;fill-opacity:1" />
      <rect
         x="16.546"
         y="56.021"
         width="2.0239999"
         height="3.99"
         id="rect3164"
         style="fill:#77c043;fill-opacity:1" />
      <rect
         x="23.969999"
         y="37.007999"
         width="2.0239999"
         height="3.9890001"
         id="rect3166"
         style="fill:#77c043;fill-opacity:1" />
      <rect
         x="23.969999"
         y="43.344002"
         width="2.0239999"
         height="3.9920001"
         id="rect3168"
         style="fill:#77c043;fill-opacity:1" />
      <rect
         x="23.969999"
         y="49.682999"
         width="2.0239999"
         height="3.9909999"
         id="rect3170"
         style="fill:#77c043;fill-opacity:1" />
      <rect
         x="23.969999"
         y="56.021"
         width="2.0239999"
         height="3.99"
         id="rect3172"
         style="fill:#77c043;fill-opacity:1" />
      <rect
         x="31.393"
         y="37.007999"
         width="2.023"
         height="3.9890001"
         id="rect3174"
         style="fill:#77c043;fill-opacity:1" />
      <rect
         x="31.393"
         y="43.344002"
         width="2.023"
         height="3.9920001"
         id="rect3176"
         style="fill:#77c043;fill-opacity:1" />
      <rect
         x="31.393"
         y="49.682999"
         width="2.023"
         height="3.9909999"
         id="rect3178"
         style="fill:#77c043;fill-opacity:1" />
      <rect
         x="31.393"
         y="56.021"
         width="2.023"
         height="3.99"
         id="rect3180"
         style="fill:#77c043;fill-opacity:1" />
    </g>
  </g>
</svg>
