<?xml version="1.0" encoding="UTF-8" standalone="no"?>
<!-- Created with Inkscape (http://www.inkscape.org/) -->

<svg
   xmlns:dc="http://purl.org/dc/elements/1.1/"
   xmlns:cc="http://creativecommons.org/ns#"
   xmlns:rdf="http://www.w3.org/1999/02/22-rdf-syntax-ns#"
   xmlns:svg="http://www.w3.org/2000/svg"
   xmlns="http://www.w3.org/2000/svg"
   xmlns:sodipodi="http://sodipodi.sourceforge.net/DTD/sodipodi-0.dtd"
   xmlns:inkscape="http://www.inkscape.org/namespaces/inkscape"
   width="10.132502"
   height="22.5"
   id="svg4915"
   version="1.1"
   inkscape:version="0.48.4 r9939"
   sodipodi:docname="Documento nuevo 8">
  <defs
     id="defs4917" />
  <sodipodi:namedview
     id="base"
     pagecolor="#ffffff"
     bordercolor="#666666"
     borderopacity="1.0"
     inkscape:pageopacity="0.0"
     inkscape:pageshadow="2"
     inkscape:zoom="1.979899"
     inkscape:cx="-124.90187"
     inkscape:cy="5.2724975"
     inkscape:document-units="px"
     inkscape:current-layer="layer1"
     showgrid="false"
     inkscape:window-width="1556"
     inkscape:window-height="647"
     inkscape:window-x="100"
     inkscape:window-y="100"
     inkscape:window-maximized="0"
     fit-margin-top="0"
     fit-margin-left="0"
     fit-margin-right="0"
     fit-margin-bottom="0" />
  <metadata
     id="metadata4920">
    <rdf:RDF>
      <cc:Work
         rdf:about="">
        <dc:format>image/svg+xml</dc:format>
        <dc:type
           rdf:resource="http://purl.org/dc/dcmitype/StillImage" />
        <dc:title></dc:title>
      </cc:Work>
    </rdf:RDF>
  </metadata>
  <g
     inkscape:label="Capa 1"
     inkscape:groupmode="layer"
     id="layer1"
     transform="translate(-328.33609,-521.11218)">
    <g
       id="g4150-1-3-3-7"
       transform="matrix(0.08018601,0,0,0.08018601,510.49887,512.22105)"
       style="fill:#77c043;fill-opacity:1">
      <path
         inkscape:connector-curvature="0"
         id="path4069-3-6-5-3"
         d="m -2230.3683,167.79018 c -10.4013,0 -17.8738,13.15208 -21.0313,23.0625 l -19.8437,62.3125 c -3.7841,11.87704 14.6567,16.24606 17.6874,6.0625 l 17.8438,-60 4.6562,0 -30.1874,103.75 28.5624,0 0,81.0625 c 0,8.42263 20.9063,11.30953 20.9063,0 l 0,-80.6875 6.4063,0 0,80.6875 c 0,11.30953 20.875,8.42263 20.875,0 l 0,-81.0625 28.5937,0 -30.1875,-103.75 4.625,0 17.875,60 c 3.0308,10.18356 21.4715,5.81454 17.6875,-6.0625 l -19.875,-62.3125 c -3.1575,-9.91042 -10.63,-23.0625 -21.0313,-23.0625 l -11.0624,0 -21.4376,0 -11.0624,0 z"
         style="fill:#77c043;fill-opacity:1;stroke:none" />
      <path
         transform="translate(-308.57143,92.090602)"
         d="m -1875.7143,43.076466 c 0,13.41263 -10.8731,24.285715 -24.2857,24.285715 -13.4126,0 -24.2857,-10.873085 -24.2857,-24.285715 0,-13.41263 10.8731,-24.285715 24.2857,-24.285715 13.4126,0 24.2857,10.873085 24.2857,24.285715 z"
         sodipodi:ry="24.285715"
         sodipodi:rx="24.285715"
         sodipodi:cy="43.076466"
         sodipodi:cx="-1900"
         id="path3295-9-8-5-5-9"
         style="color:#000000;fill:#77c043;fill-opacity:1;fill-rule:nonzero;stroke:none;stroke-width:2.94700003;marker:none;visibility:visible;display:inline;overflow:visible;enable-background:accumulate"
         sodipodi:type="arc" />
    </g>
  </g>
</svg>
