<?xml version="1.0" encoding="UTF-8" standalone="no"?>
<!-- Created with Inkscape (http://www.inkscape.org/) -->

<svg
   xmlns:dc="http://purl.org/dc/elements/1.1/"
   xmlns:cc="http://creativecommons.org/ns#"
   xmlns:rdf="http://www.w3.org/1999/02/22-rdf-syntax-ns#"
   xmlns:svg="http://www.w3.org/2000/svg"
   xmlns="http://www.w3.org/2000/svg"
   xmlns:sodipodi="http://sodipodi.sourceforge.net/DTD/sodipodi-0.dtd"
   xmlns:inkscape="http://www.inkscape.org/namespaces/inkscape"
   width="50"
   height="50"
   id="svg4512"
   version="1.1"
   inkscape:version="0.48.4 r9939"
   sodipodi:docname="Documento nuevo 3">
  <defs
     id="defs4514" />
  <sodipodi:namedview
     id="base"
     pagecolor="#ffffff"
     bordercolor="#666666"
     borderopacity="1.0"
     inkscape:pageopacity="0.0"
     inkscape:pageshadow="2"
     inkscape:zoom="0.98994949"
     inkscape:cx="61.213534"
     inkscape:cy="-14.343487"
     inkscape:document-units="px"
     inkscape:current-layer="layer1"
     showgrid="false"
     fit-margin-top="0"
     fit-margin-left="0"
     fit-margin-right="0"
     fit-margin-bottom="0"
     inkscape:window-width="1242"
     inkscape:window-height="754"
     inkscape:window-x="150"
     inkscape:window-y="150"
     inkscape:window-maximized="0" />
  <metadata
     id="metadata4517">
    <rdf:RDF>
      <cc:Work
         rdf:about="">
        <dc:format>image/svg+xml</dc:format>
        <dc:type
           rdf:resource="http://purl.org/dc/dcmitype/StillImage" />
        <dc:title></dc:title>
      </cc:Work>
    </rdf:RDF>
  </metadata>
  <g
     inkscape:label="Capa 1"
     inkscape:groupmode="layer"
     id="layer1"
     transform="translate(-172.74289,-524.43423)">
    <g
       id="g4544"
       transform="matrix(1.8510634,0,0,1.8510634,-653.74627,-673.99579)">
      <path
         inkscape:connector-curvature="0"
         id="path3934-1-40"
         d="m 460.00001,654.87116 c -2.98767,0 -4.96875,0.5 -4.96875,0.5 -0.33963,0.3467 -0.5,3.4523 -0.5,5.1875 0,1.7353 0.2107,4.6864 0.5,5.1875 0.28929,0.501 1.5,1.5 1.5,1.5 0,0 -0.0172,1.6414 0.625,2.75 0.2312,0.3724 0.5343,0.7099 0.875,1 0.34071,0.2902 0.71691,0.5311 1.09375,0.7188 0,0 0.5811,0.1562 0.875,0.1562 0.2939,0 0.875,-0.1562 0.875,-0.1562 0,0 1.32654,-0.6103 1.96875,-1.7188 0.64219,-1.1086 0.625,-2.75 0.625,-2.75 0,0 1.2107,-0.999 1.5,-1.5 0.28929,-0.5011 0.5,-3.4522 0.5,-5.1875 0,-0.8645 -0.0388,-2.0615 -0.125,-3.0937 -0.0862,-1.0322 -0.20638,-1.8801 -0.375,-2.0625 0,0 -1.98109,-0.5313 -4.96875,-0.5313 z m 0,1.2813 c 2.19236,0 3.65625,0.4062 3.65625,0.4062 l 0.0312,0 0.0312,0.031 c 0.067,0.073 0.095,0.151 0.125,0.25 0.03,0.099 0.0697,0.206 0.0937,0.3437 0.0479,0.2753 0.0934,0.6216 0.125,1 0.0631,0.7569 0.0937,1.6469 0.0937,2.2813 0,0.6383 -0.057,1.5062 -0.125,2.25 -0.034,0.372 -0.0789,0.6908 -0.125,0.9687 -0.0461,0.2779 -0.0738,0.4821 -0.15625,0.625 -0.13108,0.227 -0.40504,0.4871 -0.65625,0.7188 -0.2339,0.2157 -0.4096,0.3832 -0.4375,0.4062 0.002,0.1042 0.0424,1.1403 -0.4375,1.9688 -0.50291,0.868 -1.5,1.3125 -1.5,1.3125 l -0.0312,0 0,0.031 c 0,0 -0.11172,0.03 -0.25,0.062 -0.13828,0.031 -0.29916,0.062 -0.4375,0.062 -0.13834,0 -0.29922,-0.031 -0.4375,-0.062 -0.13828,-0.031 -0.25,-0.062 -0.25,-0.062 l 0,-0.031 -0.0312,0 c -0.28581,-0.1422 -0.5538,-0.311 -0.8125,-0.5313 -0.25872,-0.2203 -0.50871,-0.4933 -0.6875,-0.7812 -0.4799,-0.8285 -0.4395,-1.8646 -0.4375,-1.9688 -0.0279,-0.023 -0.2036,-0.1905 -0.4375,-0.4062 -0.25121,-0.2317 -0.52517,-0.4918 -0.65625,-0.7188 -0.0824,-0.1429 -0.11015,-0.3471 -0.15625,-0.625 -0.0461,-0.2779 -0.091,-0.5967 -0.125,-0.9687 -0.068,-0.7438 -0.125,-1.6117 -0.125,-2.25 0,-0.6367 0.0303,-1.5224 0.0937,-2.2813 0.0317,-0.3795 0.0768,-0.7251 0.125,-1 0.0241,-0.1374 0.0634,-0.2447 0.0937,-0.3437 0.0227,-0.074 0.0553,-0.1305 0.0937,-0.1875 l -0.0312,0 0.0312,-0.094 0.0937,-0.031 c 0,0 1.46409,-0.375 3.65625,-0.375 z m 0,0.3437 c -2.11756,0 -3.4518,0.363 -3.5,0.375 -0.0101,0.02 -0.0186,0.021 -0.0312,0.062 -0.0239,0.078 -0.0711,0.1834 -0.0937,0.3125 -0.0453,0.2583 -0.0625,0.5953 -0.0937,0.9688 -0.0624,0.7471 -0.0937,1.6244 -0.0937,2.25 0,0.6242 0.0267,1.4855 0.0937,2.2187 0.0335,0.3666 0.081,0.7033 0.125,0.9688 0.044,0.2654 0.1023,0.461 0.125,0.5 0.0794,0.1374 0.34997,0.4314 0.59375,0.6562 0.24378,0.2248 0.46875,0.4063 0.46875,0.4063 l 0.0625,0.031 0,0.094 c 0,0 -0.0248,1.162 0.40625,1.9062 0.15759,0.2538 0.35673,0.4856 0.59375,0.6875 0.23031,0.1961 0.49489,0.3708 0.75,0.5 l 0.0312,0 c 0.0235,0.01 0.0766,0.01 0.1875,0.031 0.12899,0.03 0.2995,0.062 0.375,0.062 0.0755,0 0.24601,-0.033 0.375,-0.062 0.1109,-0.021 0.164,-0.021 0.1875,-0.031 0,0 0.0309,10e-5 0.0312,0 0.0236,-0.011 0.91786,-0.4524 1.34375,-1.1875 0.43115,-0.7442 0.40625,-1.9062 0.40625,-1.9062 l 0,-0.094 0.0625,-0.031 c 0,0 0.22497,-0.1815 0.46875,-0.4063 0.24378,-0.2248 0.51435,-0.5188 0.59375,-0.6562 0.0227,-0.039 0.081,-0.2346 0.125,-0.5 0.044,-0.2655 0.0915,-0.6022 0.125,-0.9688 0.067,-0.7332 0.0937,-1.5945 0.0937,-2.2187 0,-0.6233 -0.0315,-1.5048 -0.0937,-2.25 -0.0311,-0.3725 -0.0487,-0.7098 -0.0937,-0.9688 -0.0225,-0.1295 -0.0698,-0.2335 -0.0937,-0.3125 -0.0126,-0.041 -0.0208,-0.041 -0.0312,-0.062 -0.0479,-0.012 -1.38263,-0.375 -3.5,-0.375 z"
         style="font-size:40px;font-style:normal;font-variant:normal;font-weight:bold;font-stretch:normal;line-height:100%;letter-spacing:0px;word-spacing:0px;fill:#77c043;fill-opacity:1;stroke:none;font-family:Arial;-inkscape-font-specification:Arial Bold" />
      <path
         sodipodi:nodetypes="ccccccccccccsc"
         inkscape:connector-curvature="0"
         id="path4386-4-2"
         d="m 460.4144,650.02106 c 0,1.2143 0,2.4286 0,3.6429 0.0666,0.2548 0.32491,0.3791 0.51368,0.535 0.19333,0.1356 0.40244,0.2522 0.57175,0.4191 -0.0283,0.128 -0.23515,0.041 -0.3469,0.063 -0.45795,0 -0.91588,0 -1.37382,0 m 0.41881,0 c -0.56274,0 -1.1255,0 -1.68824,0 -0.0677,-0.1752 0.24766,-0.2309 0.34238,-0.3493 0.24409,-0.1723 0.52306,-0.3249 0.68586,-0.5836 0.0509,-0.1775 0.0142,-0.3654 0.0248,-0.5479 0,-1.0592 0,-2.1185 0,-3.1778 0.15696,0 0.30789,-0.079 0.44199,-0.079 0.1341,0 0.25134,0.079 0.40828,0.079"
         style="font-size:40px;font-style:normal;font-variant:normal;font-weight:bold;font-stretch:normal;line-height:100%;letter-spacing:0px;word-spacing:0px;fill:#77c043;fill-opacity:1;stroke:none;font-family:Arial;-inkscape-font-specification:Arial Bold" />
      <path
         inkscape:connector-curvature="0"
         id="path10155-6-6-1-4"
         d="m 460,647.42786 c -7.4491,0 -13.50575,6.0567 -13.50575,13.5058 0,7.4491 6.05665,13.5057 13.50575,13.5057 7.4491,0 13.50575,-6.0566 13.50575,-13.5057 0,-7.4491 -6.05665,-13.5058 -13.50575,-13.5058 z m 0,1.1495 c 6.83412,0 12.35632,5.5222 12.35632,12.3563 0,6.8341 -5.5222,12.3563 -12.35632,12.3563 -6.83412,0 -12.35632,-5.5222 -12.35632,-12.3563 0,-6.8341 5.5222,-12.3563 12.35632,-12.3563 z"
         style="font-size:medium;font-style:normal;font-variant:normal;font-weight:normal;font-stretch:normal;text-indent:0;text-align:start;text-decoration:none;line-height:normal;letter-spacing:normal;word-spacing:normal;text-transform:none;direction:ltr;block-progression:tb;writing-mode:lr-tb;text-anchor:start;baseline-shift:baseline;color:#000000;fill:#77c043;fill-opacity:1;stroke:none;stroke-width:2.97000003;marker:none;visibility:visible;display:inline;overflow:visible;enable-background:accumulate;font-family:Sans;-inkscape-font-specification:Sans" />
    </g>
  </g>
</svg>
