<?xml version="1.0" encoding="UTF-8" standalone="no"?>
<!-- Created with Inkscape (http://www.inkscape.org/) -->

<svg
   xmlns:dc="http://purl.org/dc/elements/1.1/"
   xmlns:cc="http://creativecommons.org/ns#"
   xmlns:rdf="http://www.w3.org/1999/02/22-rdf-syntax-ns#"
   xmlns:svg="http://www.w3.org/2000/svg"
   xmlns="http://www.w3.org/2000/svg"
   xmlns:sodipodi="http://sodipodi.sourceforge.net/DTD/sodipodi-0.dtd"
   xmlns:inkscape="http://www.inkscape.org/namespaces/inkscape"
   width="50.02129"
   height="50.02129"
   id="svg3986"
   version="1.1"
   inkscape:version="0.48.4 r9939"
   sodipodi:docname="mingitoriotarja.svg">
  <defs
     id="defs3988" />
  <sodipodi:namedview
     id="base"
     pagecolor="#ffffff"
     bordercolor="#666666"
     borderopacity="1.0"
     inkscape:pageopacity="0.0"
     inkscape:pageshadow="2"
     inkscape:zoom="1.979899"
     inkscape:cx="-56.036138"
     inkscape:cy="29.301512"
     inkscape:document-units="px"
     inkscape:current-layer="layer1"
     showgrid="false"
     inkscape:window-width="1274"
     inkscape:window-height="674"
     inkscape:window-x="250"
     inkscape:window-y="250"
     inkscape:window-maximized="0"
     fit-margin-top="0"
     fit-margin-left="0"
     fit-margin-right="0"
     fit-margin-bottom="0" />
  <metadata
     id="metadata3991">
    <rdf:RDF>
      <cc:Work
         rdf:about="">
        <dc:format>image/svg+xml</dc:format>
        <dc:type
           rdf:resource="http://purl.org/dc/dcmitype/StillImage" />
        <dc:title></dc:title>
      </cc:Work>
    </rdf:RDF>
  </metadata>
  <g
     inkscape:label="Capa 1"
     inkscape:groupmode="layer"
     id="layer1"
     transform="translate(-525.88218,-516.45865)">
    <g
       id="g4815">
      <path
         sodipodi:nodetypes="cccccccccccccccccscccccccccccc"
         inkscape:connector-curvature="0"
         id="path4068-66-8-6"
         d="m 541.5,523.21875 c -0.5112,0.26413 -1.01511,0.57022 -1.5,0.875 l 0,3.15625 1.0625,0 0,16.4375 -6.90625,3.03125 2.5625,9.46875 c 1.45329,1.3986 3.08974,2.60818 4.90625,3.53125 l 18.53125,0 c 2.96391,-1.50325 5.55366,-3.72078 7.46875,-6.40625 0,0 1.76468,-2.62425 2.9375,-6.15625 l -32.09375,0 c -0.50081,-0.008 -0.67576,-0.85752 -0.21875,-1.0625 l 5.0625,-2.28125 c 0.0403,-0.0152 0.0823,-0.0257 0.125,-0.0312 0.0312,-0.003 0.0626,-0.003 0.0937,0 l 27.84375,0 c 0.11723,-0.76861 0.21875,-1.55623 0.21875,-2.34375 0,-6.03462 -3.96875,-11.875 -3.96875,-11.875 -1.88785,-2.64724 -4.43375,-4.84233 -7.34375,-6.34375 z m 29.6875,21.65625 -0.28125,1.15625 m -0.34375,1.125 0.8125,-3.375 m -0.1875,1.09375 -27.5,0 -2.625,1.15625 29.84375,0 c 0.10503,-0.38097 0.19655,-0.76139 0.28125,-1.15625"
         style="fill:#77c043;fill-opacity:1;stroke:none" />
      <path
         inkscape:connector-curvature="0"
         id="path10155-6-6-1-8-7-8-1"
         d="m 550.89282,516.45865 c -13.79463,0 -25.01064,11.21601 -25.01064,25.01065 0,13.79463 11.21601,25.01064 25.01064,25.01064 13.79464,0 25.01065,-11.21601 25.01065,-25.01064 0,-13.79464 -11.21601,-25.01065 -25.01065,-25.01065 z m 0,2.12857 c 12.65578,0 22.88208,10.22629 22.88208,22.88208 0,12.65578 -10.2263,22.88207 -22.88208,22.88207 -12.65578,0 -22.88207,-10.22629 -22.88207,-22.88207 0,-12.65579 10.22629,-22.88208 22.88207,-22.88208 z"
         style="font-size:medium;font-style:normal;font-variant:normal;font-weight:normal;font-stretch:normal;text-indent:0;text-align:start;text-decoration:none;line-height:normal;letter-spacing:normal;word-spacing:normal;text-transform:none;direction:ltr;block-progression:tb;writing-mode:lr-tb;text-anchor:start;baseline-shift:baseline;color:#000000;fill:#77c043;fill-opacity:1;stroke:none;stroke-width:2.97000003;marker:none;visibility:visible;display:inline;overflow:visible;enable-background:accumulate;font-family:Sans;-inkscape-font-specification:Sans" />
    </g>
  </g>
</svg>
