<?xml version="1.0" encoding="UTF-8" standalone="no"?>
<!-- Created with Inkscape (http://www.inkscape.org/) -->

<svg
   xmlns:dc="http://purl.org/dc/elements/1.1/"
   xmlns:cc="http://creativecommons.org/ns#"
   xmlns:rdf="http://www.w3.org/1999/02/22-rdf-syntax-ns#"
   xmlns:svg="http://www.w3.org/2000/svg"
   xmlns="http://www.w3.org/2000/svg"
   xmlns:sodipodi="http://sodipodi.sourceforge.net/DTD/sodipodi-0.dtd"
   xmlns:inkscape="http://www.inkscape.org/namespaces/inkscape"
   width="35.500481"
   height="24.999969"
   id="svg3164"
   version="1.1"
   inkscape:version="0.48.4 r9939"
   sodipodi:docname="Documento nuevo 3">
  <defs
     id="defs3166" />
  <sodipodi:namedview
     id="base"
     pagecolor="#ffffff"
     bordercolor="#666666"
     borderopacity="1.0"
     inkscape:pageopacity="0.0"
     inkscape:pageshadow="2"
     inkscape:zoom="11.2"
     inkscape:cx="12.848416"
     inkscape:cy="13.757123"
     inkscape:document-units="px"
     inkscape:current-layer="layer1"
     showgrid="false"
     fit-margin-top="0"
     fit-margin-left="0"
     fit-margin-right="0"
     fit-margin-bottom="0"
     inkscape:window-width="1920"
     inkscape:window-height="1028"
     inkscape:window-x="-8"
     inkscape:window-y="-8"
     inkscape:window-maximized="1" />
  <metadata
     id="metadata3169">
    <rdf:RDF>
      <cc:Work
         rdf:about="">
        <dc:format>image/svg+xml</dc:format>
        <dc:type
           rdf:resource="http://purl.org/dc/dcmitype/StillImage" />
        <dc:title></dc:title>
      </cc:Work>
    </rdf:RDF>
  </metadata>
  <g
     inkscape:label="Capa 1"
     inkscape:groupmode="layer"
     id="layer1"
     transform="translate(-398.99959,-639.81666)">
    <path
       id="polygon4030"
       style="fill:#414141;fill-opacity:1"
       d="m 416.35428,660.03409 -0.0111,-0.0742 0.0953,-0.0853 0.11647,0.0186 0.12722,-0.0204 0.0529,0.063 0.0849,0.0631 0.10589,0 0.19085,-0.0631 0.11647,0.0742 0.11647,0.0185 0.11665,-0.0185 0.0742,0.0946 0.11647,-0.0538 0.0847,0.0315 0.1059,0.0742 0.0634,0.0538 0.0848,-0.0631 0.021,-0.10571 -0.0953,-0.13723 0.0528,-0.12797 0.0849,-0.0742 0.0846,-0.12796 0.0955,-0.1799 0.0423,-0.0853 -0.0423,-0.11683 0.0953,-0.16877 -0.0209,-0.13724 0.11646,-0.0742 -0.0425,-0.19065 0.0532,-0.15949 0.0529,-0.14836 0.0636,-0.0853 0,-0.12797 0.0213,-0.0964 -0.0556,-0.0927 -0.11925,0.0241 -0.15096,0.0723 -0.1352,0.0797 -0.1033,0 -0.19872,0.11127 -0.2623,-0.0408 -0.0796,-0.11869 -0.0475,-0.0964 -0.0718,0 -0.1033,0.0315 -0.0873,0.0482 -0.0558,0 -0.0554,0.0315 -0.0401,-0.0872 -0.0874,-0.0946 -0.0556,-0.19065 -0.0167,-0.0946 -0.16691,0.0482 -0.0478,0.0723 -0.0556,0.0482 -0.0955,0 -0.0714,0 -0.0875,0.0315 -0.0397,-0.063 -0.0239,-0.13538 -0.0636,-0.0241 -0.0167,-0.0482 -0.11907,0.0185 -0.14317,0.0482 -0.0953,0 -0.0953,0.0389 -0.0636,-0.0185 -0.0953,0.0241 -0.0167,0.0556 -0.1033,0.0185 -0.0397,0.0556 -0.0716,0 -0.0716,-0.0241 -0.29801,0.076 -0.0517,0.0389 -0.0955,0.0427 -0.0317,0.13724 0.0212,0.12611 0.0744,-0.0538 0.0955,0.0204 0.11647,0 0.0528,0.0742 0.0744,-0.0204 0.11647,0.0742 -0.13779,0.21197 0.0745,0.0964 0.0423,0.11684 -0.0317,0.10571 0.18008,-0.0538 0.0634,0.11683 -0.19074,0.26502 -0.16951,-0.0315 -0.074,0.0742 -0.0848,0.0538 -0.29682,0.21197 -0.0634,0.0315 -0.0111,-0.0742 -0.064,-0.0538 -0.10571,0.1057 -0.0848,-0.0426 -0.13779,0.12796 -0.0742,-0.0204 -0.0213,0.10571 -0.0636,0.0631 -0.0953,0.0946 0.0323,0.0334 0.0365,0.0705 -0.0167,0.0352 0.15597,0.12055 0.12147,0.22551 0.55479,0.19047 0.36418,0.15578 0.31218,0.0686 0.38146,0.12055 0.0519,0.0185 0.009,-0.0185 -0.0211,-0.12797 0.0111,-0.12796 0.0953,-0.0946 0.15894,-0.0315 0.14818,-0.0631 -0.0425,-0.14836 z m 5.65948,-0.29692 -0.053,-0.0853 0.053,-0.11684 0.0849,-0.0946 -0.0111,-0.17989 -0.0111,-0.14837 0.19063,-0.0742 0.1059,-0.0185 0.0849,-0.0631 -0.1059,-0.0742 -0.11647,0.0186 -0.26486,-0.0946 -0.0953,-0.24387 0.0317,-0.0742 0.0423,-0.0223 0.0532,-0.25444 0.11628,-0.28598 0.13779,-0.0742 -0.0211,-0.0315 -0.25426,-0.0872 -0.0213,-0.0631 -0.11647,-0.0185 -0.0317,0.12796 -0.11647,0.0835 -0.0636,-0.0835 -0.0849,0.0204 -0.074,-0.063 0.0315,-0.10571 -0.0315,-0.10571 0,-0.11684 0.11646,0 0.0634,-0.0631 0.0847,-0.0204 -0.053,-0.0742 -0.11646,-0.0185 -0.0848,-0.0853 -0.0111,-0.12797 0,-0.0853 -0.0718,-0.0501 -0.0846,0 -0.0425,0.14837 -0.0425,0.0315 0.0345,0.0797 -0.0716,0.12796 -0.007,0.076 -0.0955,0.0538 -0.074,0.10571 -0.0849,0.0964 -0.0953,-0.0222 -0.0425,0.11683 0.0211,0.0427 0.10608,-0.0315 0.0742,0.0946 -0.0319,0.0742 0,0.10571 -0.11666,0.19102 -0.0111,0.0946 0.0425,0.10571 0.0425,0.063 0.0955,0.0204 0.0634,-0.063 0.0847,0.0964 0.1378,0.0853 -0.0111,0.0631 0.0634,0.063 0.10608,-0.0426 0.0846,0.13724 0.10608,0.0204 -0.0211,0.063 -0.053,0.0538 -0.11646,-0.0204 -0.0955,0.0315 0.0111,0.0742 -0.12704,0.0538 -0.10608,-0.0427 -0.15857,0.13724 -0.0744,-0.0427 -0.0742,-0.0185 -0.0953,-0.0427 -0.074,-0.14836 -0.0955,-0.0519 -0.0211,-0.0742 -0.0638,-0.0853 -0.10571,0.0426 -0.0111,0.13724 0.0213,0.16876 0.0423,0.19084 -0.0423,0.0742 0,0.10571 -0.0742,0.0519 -0.0425,0.13724 0.11665,0.0946 -0.0636,0.063 0.0319,0.24388 -0.0425,0.0427 -0.0425,-0.0631 -0.0953,-0.0427 -0.14837,0.13724 -0.14836,0.063 0.0211,0.10571 0.0847,0.0427 0.1059,0.0853 0.0317,0.063 0.1378,0.0204 -0.0111,0.0853 0.0317,0.0742 0.11647,0.063 0.13761,-0.063 0.14817,0.0519 0.0534,0.0631 0.0794,-0.0631 0.0716,0.0556 0.0239,-0.11127 0.34975,0 0.0718,0.063 0.0953,0 0.0634,-0.0389 0,-0.0872 -0.11108,-0.0946 0.0794,-0.23868 0.0718,0 0.0872,-0.0872 0.0636,0.0482 -0.0397,0.19084 0.11925,0.0797 0.0477,0.19084 0.0634,0 0.0399,-0.13539 0.22268,-0.16691 0.16672,-0.0185 0.0397,0.0315 0.0716,0 0.0796,-0.0723 0.12704,0 0.0477,-0.0631 0.0927,-0.13724 -0.0742,-0.16876 -0.13779,-0.063 -0.0742,0.063 -0.1274,0.0426 -0.0634,-0.0853 -0.0213,-0.12797 z m -3.19986,2.39924 -0.0618,-0.0408 -0.86679,-0.29506 -0.50305,-0.17247 -0.0692,-0.12055 -0.39893,-0.20808 -0.10405,-0.13909 -0.0695,0 -0.10404,-0.0519 -0.19059,-0.27744 -0.20825,-0.13909 -0.12129,-0.0186 -0.11202,0.0909 -0.0211,-0.12797 0.0111,-0.12796 0.0953,-0.0946 0.15894,-0.0315 0.14818,-0.0631 -0.0423,-0.14836 0,-0.13724 -0.0111,-0.0742 0.0953,-0.0853 0.11647,0.0185 0.12722,-0.0204 0.0529,0.0631 0.0849,0.063 0.1059,0 0.19085,-0.063 0.11647,0.0742 0.11646,0.0186 0.11666,-0.0186 0.0742,0.0946 0.11646,-0.0538 0.0848,0.0315 0.10589,0.0742 0.0634,0.0538 0.0847,-0.063 0.021,-0.10571 -0.0953,-0.13724 0.0529,-0.12796 0.0849,-0.0742 0.0846,-0.12796 0.0425,0.20122 0.0111,0.19065 0.0953,0.11683 0.12722,0.0631 0.0953,-0.11684 0.074,-0.0204 0.0745,-0.15949 0.15894,-0.0315 0.15894,-0.0185 0.0849,-0.11684 0.074,-0.0315 0.0846,0.0631 0.0955,0.0204 0.0211,0.063 0.0636,0.0427 0.0319,0.0742 0.0634,0.0315 0,0.0742 0.0847,0.063 0.0746,-0.0204 0.0111,-0.12796 0.0847,0.0204 0.053,0.12796 0.0742,0.0946 0.0211,0.10571 0.0848,0.0426 0.1059,0.0853 0.0317,0.0631 0.13779,0.0204 -0.0111,0.0853 0.0317,0.0742 0.11646,0.063 0.13761,-0.063 0.14818,0.0538 0.0532,0.0631 -0.007,0.0872 0,0.11869 -0.007,0.17433 -0.007,0.15949 0.0794,0.11127 0.0555,0.14281 0.0167,0.10385 0.0874,0.0482 0.0477,0.15207 0.11128,0.0705 0.0636,0.26242 0.0317,0.0482 -0.0237,0.11869 -0.12722,0.0723 -0.0167,0.0723 -0.23835,0.0723 -0.0636,0.15949 -0.14837,0.0964 -0.29841,-0.31342 -0.0866,0 -0.0347,0.0352 -0.22546,-0.0872 -0.83225,-0.13909 -0.20792,-0.10386 -0.0347,-0.10385 z m 1.17565,-1.8056 0.10589,0.0853 0.0317,0.0631 0.1378,0.0204 -0.0111,0.0853 0.0317,0.0742 0.11647,0.0631 0.13761,-0.0631 0.14836,0.0538 0.0532,0.0631 m 3.91072,0.26483 0,-0.0872 0.0955,-0.0315 0.007,-0.0556 -0.12722,-0.0389 -0.0714,0.0723 -0.0874,0.0241 -0.14058,0.20679 -0.0794,0 -0.0478,-0.0241 -0.0796,0.0797 -0.13483,-0.13538 -0.11146,-0.19083 0.0634,-0.0946 0.0556,-0.1836 -0.11424,0.0334 -0.0636,-0.0241 -0.1747,0.0315 -0.0716,-0.0315 -0.0289,-0.22328 -0.0556,-0.0631 -0.12982,-0.1224 -0.007,-0.0797 -0.11108,-0.063 0,-0.0705 -0.0558,-0.0556 -0.0477,-0.11127 -0.15114,-0.0872 -0.0953,-0.063 -0.0636,-0.0186 -0.0239,0.0389 0.0875,0.15949 -0.12203,0.25964 -0.0927,0.13723 -0.0477,0.0631 -0.12704,0 -0.0796,0.0723 -0.0716,0 -0.0397,-0.0315 -0.16673,0.0185 -0.22269,0.16692 -0.0399,0.13538 -0.0634,0 -0.0478,-0.19084 -0.11925,-0.0797 0.0397,-0.19084 -0.0636,-0.0482 -0.0872,0.0872 -0.0718,0 -0.0794,0.23868 0.11109,0.0946 0,0.0872 -0.0634,0.0389 -0.0953,0 -0.0716,-0.0631 -0.34973,0 -0.0239,0.11127 -0.0716,-0.0556 -0.0794,0.0927 -0.007,0.0575 0,0.1187 -0.007,0.17432 -0.007,0.1595 0.0794,0.11127 0.0555,0.1428 0.0167,0.10386 0.0874,0.0482 0.0477,0.15207 0.11127,0.0723 0.0636,0.26223 0.0317,0.0482 -0.0237,0.11869 -0.12722,0.0723 -0.0167,0.0723 -0.23833,0.0723 -0.0636,0.1595 -0.14836,0.0964 0.55119,0.10386 0.0521,0.0352 -0.13872,0 0.38159,0.19064 0.007,0.0186 0.0111,0 0.10386,0.0686 0.79755,0.0686 0.4163,0.20789 0.3467,0.0872 0.12129,0.0185 0.0521,-0.0705 0.32953,-0.0186 0.29473,-0.17247 0.22798,-0.0835 0.43085,-0.15949 0.1908,-0.20789 0.13872,-0.0519 0.0167,-0.0519 0.42883,0 -0.0347,-0.0352 -0.1161,-0.0278 -0.13872,0 -0.0185,0 -0.0347,-0.0352 0.0347,-0.0519 0.0866,-0.0185 0.0523,-0.10386 0.0692,-0.0352 0.12147,0.1224 -0.0347,0.0686 0.0167,0.0352 0.15597,-0.15578 0.10404,0.0519 -0.0347,0.0872 -0.1389,0.0872 0.26032,0 0.14874,0.0389 0.48554,0.13909 0.007,-0.0204 -0.0519,-0.0519 -0.15597,-0.0352 -0.0347,-0.0519 -0.17322,-0.0186 -0.0456,-0.026 -0.0414,0 -0.0347,-0.0371 0.0347,-0.0872 0.26001,0.1224 0.0868,-0.0519 0.0599,0.0983 0.0399,-0.0946 -0.0319,-0.0872 0.0397,-0.11127 -0.12704,-0.21457 0.11128,-0.2385 -0.0319,-0.13538 0.0714,-0.0241 0.11925,-0.0797 -0.0167,-0.1428 0.0556,-0.0315 -0.0167,-0.1836 -1.31955,0.0482 0.007,-0.0556 0.0317,-0.0389 -0.0317,-0.0946 -0.15097,0.026 -0.23851,-0.19083 z m 2.34192,-0.38334 0.0668,-0.15207 -0.0319,0.0482 -0.007,0.0556 -0.0239,0.0872 0.0397,0.13538 -0.0953,0.0797 -0.0167,0.11127 -0.1352,0.21457 -0.15059,-0.1428 0.0555,-0.11869 0.007,-0.063 -0.11925,-0.14281 -0.15096,-0.0556 -0.0875,-0.0241 -0.0555,-0.11869 -0.0558,0 -0.0794,-0.0408 -0.0983,-0.0186 0.0714,0.11127 0.10367,-0.0964 0.36415,-0.15579 0.0347,-0.0185 0.27744,-0.13909 0.22535,-0.0519 0.32927,-0.0186 0.0349,0 0.27738,-0.0352 0.29354,-0.46327 0.0197,0.0185 0.0148,-0.0445 0.25437,-0.0686 0.0742,0.0909 0.0167,0.10015 0.0477,0.0482 0.0692,-0.0371 0.18267,0 0.0425,0.40263 0.0423,0.0185 0.0265,0.0686 0.0979,0.0186 0.0532,0.063 0.0475,0.0204 0.0111,0.0427 -0.0111,0.0519 0.11814,0.0946 0.14335,-0.0186 -0.17636,-0.0501 0.0734,-0.20474 0.0319,-0.0686 -0.0167,-0.0594 0.0212,-0.0909 0.11108,-0.0186 0.069,0.0631 0.0664,0 0.0892,0.0204 0.0779,0.0185 0.0529,0.0742 0.2968,-0.026 0.0148,0.36535 0,0.73533 -0.36743,0.0186 -0.069,0.0315 -0.0371,-0.2053 0.0317,-0.063 -0.0634,-0.0389 -0.0796,-0.0241 -0.007,-0.0723 -0.16691,-0.0482 -0.007,-0.0797 -0.0556,-0.13538 -0.14298,-0.0389 0.0349,-0.0612 -0.11127,-0.0797 -0.0716,0.0946 -0.24953,-0.0649 -0.0716,0.0241 -0.25436,0.10386 -0.0399,0.0797 -0.36549,0.3418 -0.0716,0.0797 -0.0794,0 -0.0317,-0.0315 -0.1033,-0.15021 -0.19078,0 0.0237,-0.1187 -0.007,-0.15022 0.0399,-0.0556 -0.007,-0.0964 -0.15115,-0.0315 -0.0668,0.19158 -0.0953,-0.0556 -0.0874,0 -0.0401,0.0482 m 0.44817,-0.0482 -0.0399,0.0556 0.007,0.15022 -0.0237,0.11869 0.19077,0 0.1033,0.15022 0.0317,0.0315 0.0794,0 0.0716,-0.0797 0.36553,-0.34179 0.0399,-0.0797 0.25436,-0.10386 0.0716,-0.0241 0.24955,0.0649 0.0716,-0.0946 0.11127,0.0797 -0.0349,0.0612 0.14299,0.0389 0.0556,0.13539 0.007,0.0797 0.16691,0.0482 0.007,0.0705 0.0796,0.0241 0.0634,0.0389 -0.0317,0.063 0.0371,0.2053 0,0.0872 0.12629,0 0.37908,0.25574 0.20682,0.0427 0.0918,0.063 0.16079,0.2665 0.069,0.0538 0.19545,0.0538 0.023,0.0426 0,0.25574 0.0343,0.0742 -0.023,0.11683 0.0111,0.0631 -1.53942,0 -0.60892,1.05487 0,0.10571 0.19552,0.0853 0,0.0964 -0.092,0.15949 0.0343,0.11684 0.046,0.0853 -0.0111,0.13909 -0.1033,0.15022 -0.0345,0.0964 -0.0228,0.0222 -0.0805,-0.0185 -0.12648,-0.13909 0,-0.0427 -0.51459,-0.47811 -0.0477,-0.0649 0.0477,-0.0222 0,-0.0186 -0.0868,-0.0519 -0.0167,0.0352 -0.15597,-0.0872 -0.29482,-0.27744 -0.4682,-0.32956 -0.51991,-0.29469 0.10386,-0.0352 -0.0694,-0.0872 -0.25217,-0.0742 0.0399,-0.0946 -0.0319,-0.0872 0.0397,-0.11127 -0.12704,-0.21457 0.11127,-0.2385 -0.0319,-0.13538 0.0714,-0.0241 0.11925,-0.0797 -0.0167,-0.1428 0.0556,-0.0315 -0.0148,-0.1836 0.23841,-0.17433 0.0872,-0.0631 0.1352,-0.21439 0.0167,-0.11127 0.0953,-0.0797 -0.0428,-0.17433 0.0714,-0.0185 0.0399,-0.0482 0.0874,0 0.0953,0.0556 0.0666,-0.19158 0.15114,0.0315 z m 1.34389,-0.35867 0.0979,0.0186 0.0532,0.063 0.0475,0.0204 0.0111,0.0427 0.0901,0.0482 0.0577,-0.17618 0.0319,-0.0686 -0.0167,-0.0593 0.0211,-0.0909 0.11109,-0.0185 0.069,0.063 0.0664,0 0.0892,0.0204 0.0777,0.0186 0.0529,0.0742 0.29678,-0.026 0.0373,0.36275 2.11444,-0.26353 0,-0.0427 -0.0111,-0.13909 0.17229,-0.0204 -0.13983,-1.75274 -1.20808,-1.49033 -0.0321,0.0482 -0.0358,0.0241 -0.0514,0 -0.0835,-0.0241 -0.0477,-0.0185 0,-0.0278 -0.004,-0.0352 -0.0197,-0.0185 -0.0794,0 -0.0834,0 -0.0358,-0.34959 -0.0167,-0.0241 -0.077,0.13353 -0.0221,0.21736 -0.006,0.0538 0.0347,0.15578 0,0.41616 0.0695,0.13909 -0.0868,0.1391 -0.1734,0.17433 -0.0521,0.58974 -0.2772,0.27745 -0.20828,0.17247 -0.31201,0.15578 -0.0866,0.12055 0.10385,-0.0186 0.0167,0 0.19049,0.0872 -0.0345,0.15578 -0.0249,0.0334 -0.20044,0.1224 0,0.0352 0,0 0.0167,0.0686 -0.15059,0.10942 -0.0167,-0.0186 -0.0866,-0.0185 0.0167,-0.0186 -0.0345,-0.0519 0.0167,-0.0185 0.0347,-0.0352 -0.19082,-0.13909 -0.5765,0.1224 0.0553,0.0909 0.0167,0.10015 0.0477,0.0482 0.0692,-0.0371 0.18267,0 0.0425,0.40262 0.0423,0.0186 z m 1.64886,-3.82632 0.0111,-0.11499 -0.009,-0.0927 0,-0.0519 0.0493,-0.0408 0.228,-0.18546 0.2647,-0.13909 0.0994,-0.0519 0.52535,-0.12796 0.18633,-0.0445 0.43273,-0.10386 0.1734,-0.0519 0.1211,-0.12055 0.17322,-0.0705 0.26017,-0.0186 0.10404,-0.0686 0.19069,-0.0185 0.36395,0.0519 0.0695,0.0186 0.16469,0.0297 0.0261,0 -0.0256,0.0519 0.0111,0.2754 0.0369,0.28616 -0.19074,0.50871 -1.58438,1.96453 -1.2081,-1.49032 -0.0321,0.0482 -0.0358,0.0241 -0.0514,0 -0.0834,-0.0241 -0.0479,-0.0185 0,-0.0278 -0.004,-0.0352 -0.0197,-0.0185 -0.0796,0 -0.0835,0 -0.0358,-0.34959 -0.0167,-0.0241 m 1.69717,1.91538 0.13983,1.75275 0.18379,0.0538 0.24114,-0.33011 0,-0.17062 0.12648,-0.21309 0.10312,-0.0538 0.13798,0 0.1033,-0.0964 0.0688,-0.31973 0.1033,-0.12796 0.069,0.0315 0.0111,0.45807 0.10329,0.0742 0.0803,0.18175 0.069,0.0742 0.069,0.0186 0.023,-0.0223 0.0228,-0.21308 0.0345,-0.19177 0.0226,-0.18174 0.12649,-0.52206 0.0458,-0.18175 -0.12629,0 -0.0803,0.0427 -0.023,-0.13909 0.14948,-0.1391 0.0456,-0.11683 0,-0.10571 -0.0803,0 -0.0803,0.0742 -0.069,-0.0315 -0.023,-0.0427 0.0575,-0.19195 0.17229,-0.17062 0,-0.18175 -0.0573,-0.17061 0.0111,-0.31936 0.27559,-0.36257 0.18397,-0.34086 0,-0.11684 0.0688,-0.36238 -0.023,-0.2665 -0.0458,-0.0538 -0.0688,-0.0538 -0.10849,-0.0204 -0.33749,-0.0408 -0.0111,0.0186 0.0111,0.0426 0.0111,0.27559 0.0369,0.28597 -0.19074,0.50871 -1.58437,1.96453 m -11.63696,-0.70343 -0.053,-0.0315 -0.0847,-0.17989 0.074,-0.0427 0.0321,-0.11683 0.074,-0.0427 0.0768,-0.12796 -0.074,0.0315 -0.0532,0.0185 0.0111,-0.0538 0.0428,-0.0315 0.021,-0.0946 0.0953,-0.0427 0.13798,0.10571 0.021,-0.0315 -0.021,-0.10571 0.0634,-0.11684 0.0323,-0.11684 -0.0636,-0.0946 -0.0636,-0.0204 -0.0636,-0.0631 -0.0742,0.0427 -0.0425,0.0315 -0.0848,-0.10571 -0.0662,-0.0593 0.0556,-0.0686 -0.007,-0.0668 -0.0558,0 -0.0794,0.0315 -0.0397,0.0946 0.0397,0.0872 -0.0239,0.0315 -0.0794,-0.0482 -0.1352,0.0315 -0.0167,0.0482 -0.0556,0 -0.0319,-0.0631 -0.11907,0.0482 -0.13501,0 -0.0951,0.0408 -0.0875,0.0315 -0.1033,-0.0315 -0.0317,0.0482 -0.0556,0 0.0395,0.0797 -0.0395,0.063 0,0.0631 -0.11925,0.1836 -0.0556,0.11127 0.0477,0.0872 -0.12704,0.063 -0.17507,0.0556 -0.0955,0.0241 -0.0239,0.15949 -0.0261,0.18582 0.074,0.0742 0.10608,0.0853 0.15875,0.0538 0.11684,-0.0186 0.0634,0.13724 -0.0529,0.0631 0.0636,0.15949 0.053,0.0185 -0.0111,0.10571 0.0634,0 0.0319,-0.0742 0.0847,0 0.0111,-0.0742 -0.0111,-0.0946 0.0848,-0.0315 0.11665,-0.0631 0.10589,0.0315 0.0953,-0.0538 0.0423,0.0538 -0.0849,0.0853 0,0.0631 -0.0423,0.063 0.0742,0.0853 0.053,-0.0742 0.074,0.0222 0.053,-0.0426 0.10608,0 0.0955,0.0538 0.0636,0.0519 0,0.19083 0.15875,0.0204 0.0846,-0.0185 0.0955,-0.11684 0.0953,-0.0186 -0.0425,-0.10571 0.0111,-0.0946 0.11665,-0.19102 0,-0.10571 0.0319,-0.0742 -0.0742,-0.0946 -0.10627,0.0315 -0.0209,-0.0426 0.0425,-0.11684 0.0953,0.0204 0.0851,-0.0946 0.074,-0.10571 0.0955,-0.0538 0.007,-0.076 -0.1033,-0.0816 -0.074,-0.0315 -0.0955,0.1595 -0.0847,0.0204 -0.0953,0.11683 -0.11647,0.0538 z m -1.12065,-1.03318 0.0395,0.0798 -0.0395,0.0631 0,0.063 -0.11925,0.1836 -0.0556,0.11128 0.0477,0.0872 -0.12703,0.063 -0.17507,0.0556 -0.0955,0.0241 -0.0239,0.15949 -0.0261,0.18564 -0.0636,0.0631 0.021,0.10571 -0.0846,0.0204 -0.14836,0.16876 -0.0556,-0.0927 -0.0397,-0.0872 -0.0955,-0.0872 -0.11127,-0.0389 -0.0395,-0.063 -0.0239,-0.0946 -0.0955,-0.0315 -0.0148,-0.0872 -0.0556,-0.0872 0.0317,-0.0723 -0.0636,-0.0556 -0.0315,-0.0872 0.007,-0.15022 0.11925,-0.15949 0.0716,0.0482 0.0875,0 0.0874,-0.0797 0.1352,0.0872 0.0951,-0.0797 -0.007,-0.0723 0.0167,-0.0872 0.0716,-0.0389 0.0239,-0.11869 0.11127,0 0.0475,0.0631 0.11146,-0.0315 0.0319,-0.0408 0.0953,-0.0482 -0.007,-0.0723 -0.1033,0 0,-0.10385 -0.0397,-0.0723 0.0477,-0.0797 0.007,-0.0946 0.0714,-0.0186 0.0714,0.0872 0.0558,0.0723 0.0716,0 0.0953,-0.0241 0.0718,0 0.0237,-0.12797 0.0556,0 0.0556,-0.0241 0,-0.063 0.0636,-0.0482 0.0636,0.24647 0.0397,0.15207 0.11109,0.12611 0.11944,-0.0241 0.0167,0.0556 0.0792,0.0241 -0.11907,0.0482 -0.13501,0 -0.0951,0.0408 -0.0875,0.0315 -0.1033,-0.0315 -0.0317,0.0482 z m 1.55532,2.62309 0.15857,-0.13724 0.10608,0.0427 0.12703,-0.0538 -0.0111,-0.0742 0.0955,-0.0315 0.11646,0.0204 0.053,-0.0538 0.0212,-0.0631 -0.10608,-0.0204 -0.0846,-0.13724 -0.10608,0.0427 -0.0634,-0.0631 0.0111,-0.063 -0.1378,-0.0853 -0.0848,-0.0946 -0.0634,0.063 -0.0955,-0.0204 -0.0425,-0.063 -0.0953,0.0185 -0.0955,0.11684 -0.0846,0.0185 -0.15875,-0.0204 -0.053,0.0538 -0.0848,0 -0.0111,0.0538 0.0849,0.0742 0,0.0853 0.10571,-0.0426 0.064,0.0853 0.0211,0.0742 0.0955,0.0538 0.074,0.14836 0.0953,0.0427 0.0742,0.0185 z m -1.54752,0.73144 -0.0319,-0.0742 -0.0636,-0.0427 -0.0211,-0.063 0.0742,-0.0742 -0.0111,-0.0742 0.053,-0.12796 0.10589,-0.0427 0,-0.0742 0.0742,-0.10571 0.13779,0.0186 0.0847,0.0315 0.1378,-0.0315 0.13779,0.0853 -0.0213,0.0946 0.0848,-0.0186 0.10608,-0.0204 0.0425,-0.0426 0.0636,-0.0186 0,0.10571 -0.0742,0.0538 -0.0425,0.13724 0.11665,0.0946 -0.0636,0.0631 0.0319,0.24369 -0.0427,0.0426 -0.0425,-0.063 -0.0953,-0.0427 -0.14837,0.13724 -0.14836,0.0631 -0.0742,-0.0946 -0.053,-0.12796 -0.0848,-0.0204 -0.0111,0.12796 -0.0744,0.0204 -0.0848,-0.063 0,-0.0742 z M 420,658.34922 l -0.0742,-0.0853 0.0423,-0.0631 0,-0.063 0.0849,-0.0853 -0.0423,-0.0538 -0.0953,0.0538 -0.1059,-0.0315 -0.11665,0.0631 -0.0847,0.0315 0.0111,0.0946 -0.0111,0.0742 -0.0848,0 -0.0319,0.0742 -0.0634,0 0.0111,-0.10571 -0.053,-0.0185 -0.0636,-0.1595 0.0529,-0.063 -0.0634,-0.13724 -0.11683,0.0186 -0.15875,-0.0538 -0.10608,-0.0853 -0.074,-0.0742 -0.0636,0.0631 0.021,0.10571 -0.0846,0.0204 -0.14837,0.16876 -0.0213,0.0964 0,0.12797 -0.0636,0.0853 -0.0528,0.14837 -0.0534,0.15949 0.0425,0.19084 -0.11647,0.0742 0.021,0.13724 -0.0953,0.16876 0.0423,0.11684 -0.0423,0.0853 -0.0955,0.17989 0.0425,0.20122 0.0111,0.19065 0.0953,0.11683 0.12723,0.0631 0.0953,-0.11684 0.074,-0.0204 0.0744,-0.15949 0.15894,-0.0315 0.15894,-0.0185 0.0849,-0.11684 0.074,-0.0315 0.0846,0.0631 0.0955,0.0204 0.0742,-0.0742 -0.0111,-0.0742 0.053,-0.12796 0.10609,-0.0427 0,-0.0742 0.0742,-0.10571 -0.0319,-0.0853 -0.0315,-0.0853 -0.0744,-0.11684 0.0317,-0.0946 0.13779,-0.0742 0.0211,-0.0946 0.0317,-0.0223 0.0425,-0.0853 0.0529,0.0186 -0.0111,0.0853 0.20124,0.19083 -0.0213,0.10571 0.0321,0.0853 -0.0321,0.0427 0.0427,0.0538 -0.0317,0.0946 0.13779,0.0853 -0.0213,0.0964 0.0847,-0.0186 0.10609,-0.0204 0.0425,-0.0426 0.0636,-0.0186 0.0423,-0.0742 -0.0423,-0.19083 -0.0213,-0.16877 0.0111,-0.13724 0,-0.0853 -0.0849,-0.0742 0.0111,-0.0538 0.0848,0 0.053,-0.0538 0,-0.19102 -0.0636,-0.0519 -0.0955,-0.0538 -0.10608,0 -0.053,0.0426 -0.074,-0.0222 z m -0.29687,0.36053 0.0425,-0.0853 0.0528,0.0185 -0.0111,0.0853 0.20122,0.19065 -0.0213,0.10571 0.0321,0.0853 -0.0321,0.0426 0.0426,0.0538 -0.0317,0.0964 -0.1378,0.0315 -0.0847,-0.0315 -0.13779,-0.0185 -0.0319,-0.0853 -0.0315,-0.0853 -0.0744,-0.11684 0.0317,-0.0946 0.13779,-0.0742 0.0211,-0.0946 z m 1.66402,-3.63531 -0.0955,0.0631 -0.074,-0.0186 -0.0111,-0.12796 -0.12722,-0.0556 -0.0953,-0.0556 -0.0718,-0.0631 -0.0953,-0.0204 -0.0529,0.0853 -0.0746,0.0241 -0.15077,-0.0612 -0.0714,0.11683 0.16672,0.13724 0.0848,0.0426 0.0267,0.0427 -0.15115,0.063 0.0111,0.11684 -0.0425,0.0853 -0.0951,0 0,0.13724 0.0846,0.0853 -0.0211,0.0742 -0.0742,0.0519 -0.0953,0.063 0.0846,0.19065 0.0742,0.0742 0.0345,0.11313 0.007,0.0668 -0.0556,0.0686 0.0662,0.0575 0.0847,0.10571 0.0425,-0.0315 0.0742,-0.0427 0.0636,0.0631 0.0636,0.0204 0.0636,0.0946 -0.0321,0.11684 -0.0634,0.11684 0.0209,0.10571 -0.0209,0.0315 -0.13798,-0.10571 -0.0953,0.0427 -0.021,0.0946 -0.0427,0.0315 -0.0111,0.0538 0.0534,-0.0186 0.074,-0.0315 -0.0768,0.12796 -0.074,0.0427 -0.0321,0.11683 -0.074,0.0427 0.0847,0.17989 0.053,0.0315 0.0742,-0.0742 0.11647,-0.0538 0.0953,-0.11683 0.0848,-0.0204 0.0955,-0.1595 0.074,0.0315 0.1033,0.0816 0.0716,-0.12796 -0.0345,-0.0797 0.0425,-0.0315 0.0425,-0.14836 0.0846,0 0.0718,0.0501 0,0.0853 0.0111,0.12797 0.0847,0.0853 0.11647,0.0185 0.053,0.0742 -0.0848,0.0204 -0.0634,0.0631 -0.11647,0 0,0.11684 0.0315,0.10571 -0.0315,0.10571 0.074,0.063 0.0849,-0.0204 0.0636,0.0835 0.11647,-0.0835 0.0317,-0.12796 0.11646,0.0185 0.0213,0.0631 0.25423,0.0872 0.0211,0.0315 -0.1378,0.0742 -0.11628,0.28597 -0.0532,0.25445 -0.0423,0.0223 -0.0317,0.0742 0.0953,0.24369 0.26489,0.0946 0.11647,-0.0186 0.10608,0.0742 -0.0849,0.0631 -0.1059,0.0186 -0.19064,0.0742 0.0111,0.14836 0.0111,0.17989 -0.0849,0.0946 -0.053,0.11683 0.053,0.0853 0.25435,0.0223 0.0213,0.12796 0.0634,0.0853 0.12741,-0.0426 0.0742,-0.0631 0.13779,0.0631 0.074,0.16876 0.12203,-0.25945 -0.0875,-0.15949 0.0239,-0.0389 0.0636,0.0186 0.0953,0.063 0.15096,0.0872 0.0477,0.11127 0.0558,0.0556 0,0.0723 0.11109,0.0631 0.007,0.0797 0.12982,0.1224 0.0556,0.0631 0.0289,0.22329 0.0716,0.0315 0.1747,-0.0315 0.0636,0.0241 0.11424,-0.0334 -0.0556,0.1836 -0.0634,0.0946 0.11145,0.19084 0.13483,0.13538 0.0796,-0.0797 0.0477,0.0241 0.0796,0 0.14058,-0.20678 0.0874,-0.0241 0.0714,-0.0723 0.12722,0.0408 -0.007,0.0556 -0.0953,0.0315 0,0.0872 0.11127,0.12796 0.23852,0.19102 0.15096,-0.026 0.0317,0.0946 -0.0317,0.0389 -0.007,0.0556 1.31954,-0.0482 0.23842,-0.17433 0.0872,-0.0631 -0.15059,-0.1428 0.0554,-0.11869 0.007,-0.0631 -0.11924,-0.14281 -0.15097,-0.0556 -0.0875,-0.0241 -0.0555,-0.11869 -0.0558,0 -0.0794,-0.0408 0.0768,0 -0.10367,0.0964 -0.0714,-0.11127 0.27342,0.0408 -0.0399,-0.0705 -0.70549,-0.0185 0.10942,0.076 -0.0347,-0.10386 -0.15578,-0.12054 -0.33508,-0.30063 -0.15597,-0.0278 -0.13872,-0.0241 -0.22548,-0.17433 -0.48545,0 -0.0697,-0.0371 -0.1211,-0.0668 -0.0345,0 -0.19059,-0.0872 -0.0868,-0.24276 -0.10404,0 -0.0254,-0.0612 -0.0111,-0.40207 -0.0696,0 -0.1734,-0.13909 -0.0167,-0.17248 -0.0697,-0.0686 -0.0148,-0.0519 -0.10663,-0.38112 -0.29475,-0.38166 -0.39749,-0.41858 -0.24407,-0.2576 -0.0519,-0.19083 -0.0595,-0.11313 -0.28733,-0.54617 -0.0261,-0.12054 -0.0951,-0.0538 -0.12147,-0.22533 0.23794,0.0705 0.0625,0.0946 0.0419,0.0853 0.0694,0.20827 0.0645,-0.37036 -0.3122,-0.27429 -0.10367,-0.18174 -0.0148,-0.0482 m 0.11535,3.46821 m -8.56353,0.17989 0.0636,-0.0538 0.10608,-0.0186 0.11646,-0.0315 0.13798,-0.0186 0.11647,-0.11684 0.0319,-0.0426 0.27547,0.063 0.1378,-0.063 0.0955,0.0204 0.0634,0.0742 0.0742,0.0742 0.0213,0.13724 -0.0317,0.16876 0.0636,0.0742 0.0317,0.063 -0.13779,0.12797 -0.0742,-0.0204 -0.0213,0.10571 -0.0636,0.063 -0.0953,0.0946 -0.27772,-0.2422 -0.125,-0.0519 -0.31209,-0.12982 -0.0167,-0.12054 -0.13501,0 -0.18902,-0.0705 0.0811,-0.14465 z m -0.14447,0.11313 -0.0887,-0.0334 -0.0868,-0.0872 0.15616,0.10386 0.0167,-0.0872 -0.12147,0 -0.12129,-0.0872 -0.10386,-0.13909 -0.0347,-0.13909 -0.13872,-0.0872 0,-0.20122 -0.0725,-0.10942 0.13557,-0.13909 -0.0523,-0.26001 -0.20606,-0.22459 0.0388,-0.17432 -0.0345,-0.0797 0.13854,-0.0686 0,-0.0872 -0.0655,-0.0872 0.148,-0.17989 0.053,-0.0853 -0.0848,-0.11869 0.13798,0.0186 0.10571,-0.0946 0.0955,-0.0426 0.0848,0.0538 0.0742,0.0631 0.10589,0.0185 0.12723,0.15949 0.0847,0.0315 0.12722,0.12796 0.021,-0.26501 0.11665,-0.0742 0.0317,-0.0853 0,-0.0853 -0.0528,-0.0742 0,-0.063 0.22249,-0.0315 0.0847,-0.0853 0.0167,-0.0816 -0.28625,-0.21179 0.10608,-0.38426 -0.10608,-0.0946 -0.12184,-0.1224 -0.10052,-0.11127 0.0768,-0.21049 0.25687,-0.0872 0.1378,0.0186 0.0636,-0.10571 -0.0111,-0.16877 -0.0953,-0.0631 -0.0111,-0.13724 0.0317,-0.13724 0.2967,0.0427 -0.0211,0.11684 -0.0953,0.063 0.0111,0.15949 -0.0425,0.10571 0.0319,0.19065 0.10608,-0.21179 0,-0.15949 0.053,-0.11684 0.14818,0.11684 -0.0211,0.0853 -0.0636,0.21179 0.0111,0.10571 -0.0111,0.0742 0.0529,0.0742 0.0955,-0.0538 0.11646,0.0538 0.0319,-0.12796 0.074,-0.0427 0,-0.14836 -0.0527,-0.063 0.0111,-0.0742 0.0847,-0.0964 0.22244,0.17989 -0.0425,0.0742 -0.0529,0.0204 0.0211,0.0427 0.11666,-0.0315 0.0953,0.063 -0.0211,0.0853 -0.11665,0.0853 0.0742,0.0853 -0.0634,0.0742 0,0.0538 -0.0742,0.0538 -0.1059,-0.0631 -0.0955,0.0742 -0.0846,0.0538 -0.14837,0.2014 0.0111,0.23294 -0.0955,0.0742 -0.0846,-0.0427 -0.0532,0.0315 -0.0111,0.20141 -0.0744,0.19083 0.14837,-0.0186 0.0532,0.0853 0.0846,0.0204 0.0847,0.0315 0.0744,-0.0185 0.0847,0.0742 0.1059,-0.0315 0.10589,0.0315 0.0634,0.0315 0.0848,-0.0631 -0.0425,-0.14836 0.0317,-0.0853 0.23312,0.063 0.0636,-0.0853 0.0847,-0.0222 0.0213,-0.0853 0.10608,0 0.0211,-0.0538 -0.053,-0.0538 0.0636,-0.0204 -0.0111,-0.13723 -0.14836,-0.0538 -0.0848,-0.063 0.0425,-0.0631 0.0953,-0.063 0.13779,0.0315 0.21196,0.063 0.22253,0.0315 0.19067,-0.14837 0.0744,-0.13723 0.16951,-0.0631 -0.0634,-0.11684 0.11666,-0.0426 0.20127,0.10571 0.16951,0.12796 0.11405,-0.0315 0.0397,0.0556 -0.0953,0.0872 0.0397,0.0797 -0.0397,0.0797 -0.0716,0.0556 -0.0636,0.0797 0.0167,0.0797 0.0636,0.10385 0.007,0.0797 -0.0874,0.0389 -0.0951,0.0186 -0.14298,0.21457 -0.1747,0.21476 -0.0556,0.12797 -0.11109,0.11869 0.0237,0.15022 0.14317,0.0556 0.0397,0.0723 -0.0716,0.0315 -0.15096,0.11127 0.0167,0.10386 -0.14317,0.0482 -0.0955,0 -0.0953,0.0389 -0.0636,-0.0185 -0.0953,0.0241 -0.0167,0.0556 -0.1033,0.0186 -0.0397,0.0556 -0.0716,0 -0.0718,-0.0241 -0.29801,0.076 -0.0517,0.0389 -0.0953,0.0426 -0.0317,0.13724 0.0211,0.12796 0.0742,-0.0538 0.0955,0.0204 0.11647,0 0.0528,0.0742 0.0744,-0.0204 0.11647,0.0742 -0.1378,0.21197 0.0742,0.0946 0.0423,0.11684 -0.0317,0.10571 0.18007,-0.0538 0.0634,0.11684 -0.19074,0.26501 -0.16951,-0.0315 -0.074,0.0742 -0.0848,0.0538 -0.2968,0.21198 -0.0634,0.0315 -0.0111,-0.0742 -0.0638,-0.0538 -0.10571,0.10571 -0.0848,-0.0427 -0.0317,-0.063 -0.0636,-0.0742 0.0317,-0.16877 -0.0213,-0.13724 -0.0742,-0.0742 -0.0634,-0.0742 -0.0955,-0.0204 -0.13779,0.063 -0.27552,-0.063 -0.0319,0.0426 -0.11646,0.11684 -0.13798,0.0186 -0.11647,0.0315 -0.10608,0.0186 -0.064,0.0538 -0.0636,-0.0315 -0.0742,0.14836 m 3.40213,-3.77291 -0.16951,-0.0964 0,-0.14836 -0.0636,-0.0519 -0.0846,-0.0204 -0.0213,-0.0964 -0.0953,0 -0.11647,-0.13724 -0.0425,0.0853 -0.10608,0.0427 -0.11665,0.0742 -0.11647,0.0204 -0.0317,0.063 -0.0638,0.16877 -0.0848,0.0538 -0.053,0.13724 -0.074,0.063 0,0.1595 0.0848,0.12796 0.0953,-0.063 0.1378,0.0315 0.21197,0.0631 0.22251,0.0315 0.19067,-0.14837 0.0744,-0.13724 0.1695,-0.063 -0.0636,-0.11684 z m 1.69313,1.96583 0.0317,-0.0723 -0.0636,-0.0556 -0.0315,-0.0872 0.007,-0.15022 0.11924,-0.15949 0.0716,0.0482 0.0875,0 0.0874,-0.0798 0.13519,0.0872 0.0951,-0.0797 -0.007,-0.0723 0.0167,-0.0872 0.0716,-0.0389 0.0239,-0.11869 0.11128,0 0.0475,0.0631 0.11146,-0.0315 0.0319,-0.0408 0.0953,-0.0482 -0.007,-0.0723 -0.1033,0 0,-0.10385 -0.0397,-0.0705 -0.0556,-0.0723 -0.11127,-0.0241 -0.15096,-0.0723 -0.0237,-0.0315 -0.11925,-0.0556 -0.0397,-0.0797 -0.21459,-0.0241 -0.13502,0.0315 -0.0319,0.13538 -0.0556,0.0556 -0.0874,0.0241 -0.0716,-0.063 -0.0716,0 -0.0636,-0.0631 -0.1033,-0.0408 -0.15096,-0.1836 -0.11128,0 -0.11109,0.0186 -0.11127,-0.0482 -0.0556,-0.0723 -0.18286,0 -0.0953,0.0872 0.0397,0.0797 -0.0397,0.0797 -0.0716,0.0556 -0.0636,0.0798 0.0167,0.0797 0.0634,0.10385 0.007,0.0797 -0.0874,0.0389 -0.0951,0.0186 -0.14317,0.21476 -0.1747,0.21476 -0.0556,0.12796 -0.11109,0.11869 0.0237,0.15022 0.14317,0.0556 0.0397,0.0723 -0.0716,0.0315 -0.15096,0.11128 0.0167,0.10385 0.11907,-0.0185 0.0167,0.0482 0.0636,0.0241 0.0239,0.13539 0.0397,0.063 0.0875,-0.0315 0.0714,0 0.0955,0 0.0556,-0.0482 0.0479,-0.0723 0.16691,-0.0482 0.0167,0.0964 0.0556,0.19064 0.0874,0.0946 0.0399,0.0872 0.0555,-0.0315 0.0558,0 0.0873,-0.0482 0.1033,-0.0315 0.0718,0 0.0475,0.0964 0.0796,0.1187 0.26229,0.0408 0.19874,-0.11128 0.1033,0 0.13519,-0.0797 0.15096,-0.0723 0.11925,-0.0241 -0.0397,-0.0872 -0.0955,-0.0872 -0.11127,-0.0389 -0.0395,-0.0631 -0.0239,-0.0946 -0.0955,-0.0315 -0.0148,-0.0872 z m 0.89017,-1.1604 m 0.75524,-0.0797 m -7.65581,-0.16691 0.23036,0.10756 0.0167,0.0705 -0.0236,0.0371 -0.0632,0.10015 0.0347,0.15578 -0.0347,0.2079 -0.10386,0.0519 0,0.33604 0.15523,-0.0185 -0.0861,0.10571 0.10422,-0.0186 0.0384,0.0853 0.148,-0.17989 0.053,-0.0853 -0.0848,-0.11869 0.13798,0.0185 0.10571,-0.0946 0.0953,-0.0426 0.0847,0.0538 0.0742,0.063 0.1059,0.0186 0.12722,0.15949 0.0847,0.0315 0.12723,0.12611 0.021,-0.26502 0.11665,-0.0742 0.0317,-0.0853 0,-0.0853 -0.0529,-0.0742 0,-0.0631 0.22251,-0.0315 0.0847,-0.0853 0.0167,-0.0816 -0.28626,-0.21179 0.10609,-0.38426 -0.10609,-0.0946 -0.12184,-0.1224 -0.10052,-0.11128 0.0768,-0.21049 -0.0239,-0.0668 -0.0317,-0.1428 -0.14335,0 -0.12685,-0.10386 -0.0215,-0.10015 -0.0503,-0.13538 -0.11665,-0.0538 -0.11925,0.0835 -0.11145,0.0649 -0.16933,-0.0853 0.058,-0.0853 0.16951,-0.0946 -0.0423,-0.10571 -0.0213,-0.10571 -0.29694,-0.14836 -0.26481,-0.0186 -0.0955,0.10571 0.053,0.0742 -0.0846,0.0315 -0.0532,0.13724 0.0847,0.0853 0.0425,0.10571 0.0111,0.0742 -0.0846,0.0853 -0.0849,-0.0426 -0.0953,-0.0186 -0.0304,-0.0427 -0.0198,0.0185 0.0167,0.0593 -0.0167,0.0241 -0.0595,-0.0519 -8e-4,0 -0.0167,0.0352 0.10404,0.19084 -0.013,0.35274 -0.006,0.13352 0.19075,0.29488 0.0694,0.22551 z m -4.3071,-6.442 m 1.54057,-0.27429 -0.14299,-0.15949 0.0167,-0.2066 -0.20667,-0.12796 -0.0634,-0.0946 -0.15893,-0.0315 -0.0953,0.0946 -0.11127,0.27021 -0.23831,0.2231 -0.54852,0.30545 0.0111,0.0834 0.0694,0.0352 -0.0347,0.10386 -0.0868,-0.0872 0.004,-0.0185 -0.0347,-0.0352 -0.0896,0.18954 0,-0.10386 -0.19088,0.26001 -0.0167,0.12055 0.0167,0.10385 0,0.0186 -0.0345,0.0686 0.0345,0.15578 0.0519,-0.10386 0.0866,0.0686 0.0351,0.0352 0.10404,0.0519 0.0347,0.0872 0.0868,0 0.1441,-0.0853 0.0334,0.0389 -0.0734,0.11683 -0.0167,-0.0519 -0.0694,0.0241 -0.0694,0.0278 0.0868,0.10386 0.0167,-0.0519 0.0866,0 0.0347,0.0519 0.0519,-0.0519 -0.0347,-0.0872 0.15616,0.0352 -0.0167,0.15579 0.0345,-0.0186 0.0347,0.0519 0.009,0 0.0436,0 0.0695,0.0519 -0.0747,0.0278 0.28275,0.11128 0.0521,0.0872 0.0111,-0.0185 0.0237,-0.0575 0.0523,0.0186 0,0.0872 -0.0237,0 -0.0111,0.0186 0.15597,0 0.0521,0.0872 0.0521,-0.0185 0.0868,0.0519 0.0519,0.10385 -0.12129,-0.0185 -0.0347,-0.0519 -0.0347,0.0352 0.0347,0.0185 0,0.0519 -0.0519,-0.0186 -0.12147,-0.15578 -0.0521,0 0.0964,0.12982 0.12889,0.21791 0.0347,0.0352 0.0167,-0.0352 0.0523,0.0186 0.0111,-0.14651 0.0538,0.063 -0.006,0.0909 0.009,0.0797 -0.0167,0.0186 -0.0866,-0.0352 0.0694,0.17247 0.13335,0.10571 -0.0467,-0.089 0.13872,0.0686 0.0866,0.12055 0.0868,0.0185 0.0345,0.0519 0.10422,-0.0519 -0.0521,-0.0185 0.0167,-0.0186 0.0692,0 0.0521,0.17248 -0.0347,0.0352 -0.0695,-0.0185 -0.27786,-0.16506 -0.0167,0.0186 0.58986,0.42599 0.24289,0.20808 0.0694,0.0519 0.15597,0.19083 0.10385,0.26001 0.32948,0.32937 0.12129,0.29488 0.0521,0 0.19082,0.17247 0.22531,0.29469 0.0523,-0.0186 -0.0167,0.0352 0.20806,0.20808 0.0694,0.17433 0.0347,0 -0.0167,0.0352 0.0785,0.0185 0.0198,-0.0946 0.0304,0.0426 0.18026,0.0538 0.0848,-0.0853 -0.053,-0.1799 -0.0847,-0.0853 0.0532,-0.13724 0.0848,-0.0315 -0.053,-0.0742 0.0955,-0.10571 -0.0167,-0.12797 -0.14299,0.0186 -0.11127,-0.0797 0,-0.0964 -0.0955,-0.11128 -0.0317,-0.25463 -0.14298,-0.0946 -0.0477,-0.20641 -0.0477,-0.0631 0.0148,-0.1428 0.048,-0.11127 -0.0797,-0.12797 -0.11128,-0.25444 -0.25439,-0.1428 -0.0953,0.11127 -0.17489,0.0482 -0.14298,-0.15949 0.0477,-0.12611 -0.14317,-0.25445 -0.11128,-0.19065 -0.17488,-0.0631 -0.12704,-0.25445 -0.0796,-0.334 0.0634,-0.25426 -0.0223,-0.2346 0,-0.20401 -0.0629,-0.11869 -0.10849,-0.0315 -0.0462,-0.1428 -0.0946,-0.12796 -0.39715,-0.0315 z m 3.05635,4.81165 -0.26482,-0.0185 -0.0955,0.10571 0.053,0.0742 -0.0846,0.0315 -0.0532,0.13724 0.0847,0.0853 0.0425,0.10571 0.0111,0.0742 -0.0846,0.0853 -0.0849,-0.0427 -0.0953,-0.0185 -0.0304,-0.0427 -0.0198,0.0186 0.0167,0.0593 -0.0167,0.0241 -0.0595,-0.0519 m -4.99522,-0.65299 0.19063,-0.12054 0.0868,-0.10386 0.15615,-0.0686 0.10404,-0.13909 0.0347,-0.24294 -0.0695,-0.2079 -0.24271,-0.12055 0,-0.17247 -0.15597,-0.17433 m 5.706,1.90982 0.058,-0.0853 0.16951,-0.0946 -0.0423,-0.10571 -0.0213,-0.10571 -0.29692,-0.14836 -0.26481,-0.0186 -0.0167,-0.12796 -0.14299,0.0185 -0.11127,-0.0797 0,-0.0964 -0.0955,-0.11127 -0.0317,-0.25445 -0.14299,-0.0946 -0.0477,-0.2066 -0.0477,-0.063 0.0148,-0.1428 0.0479,-0.11128 -0.0797,-0.12796 -0.11127,-0.25426 -0.25437,-0.1428 -0.0953,0.11127 -0.17489,0.0482 -0.14299,-0.15949 0.0477,-0.12797 -0.14318,-0.25444 -0.11127,-0.19084 -0.17488,-0.063 -0.12704,-0.25445 -0.0796,-0.33382 0.0636,-0.25426 0,-0.23849 0.44513,0.0482 0.20665,-0.1428 0,-0.38166 0.0955,0 0.11128,-0.17433 -0.14317,-0.22255 0.0317,-0.0964 0.31791,-0.0315 0,-0.17433 0.0636,-0.0797 0.0319,-0.17433 0.0953,0 0.0636,-0.0946 0.30213,0.22255 0.1907,0.0185 0.14299,0.20679 0.27012,0.0797 0.17488,-0.11127 0.0477,0.0797 0.0636,0.0186 0.14299,-0.0797 0.1907,0.0315 0.0796,0.12797 0.12722,0.0482 0.0953,-0.0185 0.28627,-0.44509 0.28607,-0.0315 0.39739,0.11127 0.41333,0.46104 0.0317,0.12797 -0.10589,0.21197 0.0209,0.21198 0.0319,0.0742 -0.0111,0.20141 -0.12703,0.14836 -0.0319,0.12797 0.0847,0.13723 -0.10589,0.0538 -0.0212,0.10571 0.1059,0.13723 0.053,0.0964 0.074,0.0186 0.0425,0.063 0.0212,0.12797 0.15893,0.17989 0.23314,0.0427 0.0317,0.0631 0.0848,0.0426 0.2545,-0.48756 0.1695,0.32844 0.0425,0.46512 -0.0636,0.13724 -0.29378,0 -0.11943,0.0186 -0.42405,-0.0668 -0.0744,-0.0538 -0.23302,0.0519 -0.053,0.12611 -0.10608,0.0315 0.0185,0.11683 -0.29986,0.20122 0,0.0946 -0.0362,0.0686 -0.0545,0 -0.041,0.076 0.0528,0.0612 -0.0111,0.11498 0.1059,0.10571 -0.0529,0.0427 -0.11646,-0.0297 -0.0111,0.0927 -0.23321,0.12797 -0.0319,0.063 0.0425,0.0631 -0.0425,0.3073 -0.0953,0.11684 0.009,0.43322 -0.13835,0.64947 -0.0491,-0.20679 -0.15856,0 -0.11814,-0.10756 -0.0215,-0.10015 -0.0503,-0.13538 -0.11665,-0.0538 -0.23058,0.14836 z m 4.58626,0.21087 -0.0556,-0.0946 -0.0794,-0.0556 -0.10348,0 -0.1033,0.11313 -0.11925,0.076 -0.0432,0.0482 -0.11276,0 -0.10627,-0.17804 -0.18044,-0.20196 -0.1908,-0.11869 -0.0742,-0.21309 0.0317,-0.17989 -0.0848,-0.16876 0.053,-0.0464 0.0425,-0.0964 0.0332,0 0.0938,0 0.13798,-0.0427 0.0636,0.0186 0.16951,-0.2767 0.1059,-0.0538 0.0744,-0.12796 0.24111,-0.10571 0.20393,-0.17989 0.19085,-0.3073 0.1378,-0.24388 0.18045,-0.10571 0.0625,-0.12796 -0.0586,-0.0686 -0.0707,0.0185 -0.0727,0.0427 -0.20357,-0.14836 -0.0389,-0.11684 -0.0742,-0.0631 -0.16932,-0.0185 -0.1059,0.0853 -0.1695,-0.0427 0.0317,-0.0853 -0.0529,-0.0538 -0.0848,0.0427 -0.0742,-0.0538 -0.0848,-0.19083 -0.50876,-0.19065 -0.41329,0.0946 0.1695,0.32845 0.0425,0.45102 -0.0636,0.1224 -0.29378,0 -0.11925,0.0334 -0.42406,-0.0593 -0.0742,-0.0501 -0.23303,0.0538 -0.053,0.12796 -0.10589,0.0315 -8e-4,0.11684 -0.31908,0.2014 0,0.0946 0.002,0.0705 -0.0545,0 -0.0408,0.0742 0.0529,0.0612 -0.0111,0.11499 0.1059,0.1057 -0.0529,0.0427 -0.11647,-0.0297 -0.0111,0.0927 -0.23319,0.12797 -0.0319,0.0631 0.0425,0.0631 -0.0425,0.3073 -0.0953,0.11684 0.009,0.43304 -0.13835,0.64946 0.25687,-0.0853 0.13779,0.0186 0.0636,-0.10571 -0.0111,-0.16877 -0.0953,-0.063 -0.0111,-0.13724 0.0317,-0.13724 0.29671,0.0427 -0.0211,0.11684 -0.0953,0.063 0.0111,0.15949 -0.0425,0.10571 0.009,0.19084 0.0836,-0.21198 0,-0.1632 0.0729,-0.11127 0.1606,0.11683 -0.0784,0.29673 0.013,0.10571 -0.009,0.0742 0.0538,0.0742 0.0959,-0.0538 0.11665,0.0538 0.004,-0.12797 0.0451,-0.0426 0,-0.13724 -0.0204,-0.0742 0.0236,-0.0742 0.0912,-0.0946 0.22572,0.1799 -0.0408,0.0742 -0.0519,0.0204 0.0215,0.0426 0.11684,-0.0315 0.0955,0.063 -0.021,0.0853 -0.11666,0.0853 0.0349,0.0853 -0.10293,0.0742 0,0.0427 -0.0297,0.063 -0.0783,-0.0575 -0.18231,0.12055 -0.1441,0.2014 0.013,0.23293 -0.0944,0.0742 -0.084,-0.0427 -0.0529,0.0315 -0.0111,0.2014 -0.0742,0.19084 0.14837,-0.0186 0.0532,0.0853 0.0846,0.0204 0.0847,0.0315 0.0744,-0.0186 0.0848,0.0742 0.10589,-0.0315 0.1059,0.0315 0.0636,0.0315 0.0848,-0.0631 -0.0425,-0.14837 0.0317,-0.0853 0.23312,0.0631 0.0636,-0.0853 0.0848,0 0.0213,-0.0593 0.10108,0 0.026,-0.0835 -0.053,-0.0631 0.0636,-0.026 -0.0111,-0.14095 -0.14836,-0.0538 -0.0847,-0.0649 0.007,-0.063 -0.11925,-0.12797 0,-0.15393 0.11387,-0.0686 0.0675,-0.13724 0.092,-0.0519 0.0673,-0.16876 0.0336,-0.0631 0.11739,-0.0204 0.11702,-0.0742 0.10627,-0.0427 0.0425,-0.0816 0.11665,0.14095 0.10126,0 0.0148,0.0927 0.0618,0.0204 0.0408,0.0519 0,0.1595 0.18926,0.0853 0.2142,0.10571 0.176,0.12796 0.12129,-0.0185 0.0712,-0.11128 0.0475,-0.0445 0.0395,-0.32788 -0.0397,-0.13539 -0.0167,-0.0964 0.0794,-0.0556 z m 1.49893,-0.46605 0,0.0742 0.0751,0.0538 0.19465,0.0315 0.22737,0.10571 0.15041,0.0426 -0.0306,-0.12796 0.0432,-0.0315 0.0851,0.0964 0.11665,-0.0204 0.21209,0.3392 0.20128,-0.0186 0.18026,0.10571 0.0317,-0.0426 0.1378,0 0.0794,-0.0334 0.12222,0 0.0766,0.063 0.16673,0.12982 0.0848,0.0371 0.0267,0.0389 -0.15114,0.063 0.0111,0.1224 -0.0425,0.0909 -0.10367,0 0.009,0.13167 0.0846,0.0797 -0.0211,0.0723 -0.16932,0.11499 0.0846,0.19027 0.0742,0.10386 0.0345,0.1428 -0.0506,0 -0.0846,0 -0.0397,0.0797 0.0397,0.0797 -0.0239,0.0278 -0.0794,-0.0501 -0.1352,0.0501 -0.0167,0.0649 -0.0462,0 -0.0382,-0.0742 -0.0823,-0.0408 -0.013,-0.0593 -0.12185,0.0186 -0.11665,-0.12797 -0.11609,-0.39854 -0.082,0.0464 0,0.0668 -0.0189,0.0185 -0.0447,0 -0.0345,0.13167 -0.0718,0.0352 -0.0953,0.0519 -0.0703,0 -0.12852,-0.1836 -0.0714,0 -0.007,0.0872 -0.0478,0.076 -0.0558,-0.0742 -0.11128,-0.0241 -0.15096,-0.0723 -0.0237,-0.0315 -0.11925,-0.0556 -0.0397,-0.0797 -0.21458,-0.0241 -0.13501,0.0315 -0.0319,0.13538 -0.0556,0.0556 -0.0874,0.0241 -0.0716,-0.0631 -0.0716,0 -0.0636,-0.063 -0.10329,-0.0408 -0.15097,-0.18361 -0.22249,0.0241 -0.11127,-0.0334 -0.0556,-0.0575 -0.1797,0 -0.0428,-0.0742 0.0716,-0.10757 0.0477,-0.0426 0.0397,-0.32715 -0.0397,-0.13538 -0.0167,-0.0964 0.0796,-0.0556 0.0239,-0.0408 -0.0556,-0.0946 -0.0796,-0.0556 -0.10348,0 -0.1033,0.11127 -0.11925,0.0668 -0.0555,0.0575 -0.10033,0 -0.10627,-0.18843 -0.18045,-0.19343 -0.19078,-0.11683 -0.0742,-0.21272 0.0317,-0.17989 -0.0848,-0.16877 0.053,-0.0612 0.0425,-0.11498 0.0332,0 0.0938,0.026 0.13798,-0.0297 0.0636,0.0222 0.1695,-0.27521 0.1059,-0.0519 0.0744,-0.12796 0.24109,-0.10571 0.20395,-0.1799 0.19085,-0.3073 0.13779,-0.24387 0.18045,-0.10571 0.0625,-0.12611 0.12815,0.11684 0.11628,0.15949 0.0211,0.47699 0.15894,0.28653 -0.0213,0.22292 0.0425,0.0964 -0.0213,0.16876 0.0302,0.18917 0.0586,0.0853 0.11202,0 -0.0148,-0.1057 0.24621,0.0185 0,0.0742 0.0211,0.0742 0.0972,-0.0631 0.0465,0.11684 0.0862,0.0742 -0.009,0.0538 z m 3.25892,-4.24026 0.0167,0.0445 0.0695,-0.0389 0.0456,-0.0186 -0.0111,0.40634 -0.40655,0.98273 -0.009,-0.13353 0.13873,-0.29487 -0.0167,-0.12055 0.0347,-0.0352 -0.15616,-0.0519 -0.0167,0.0352 0.0519,0.0186 -0.0519,0.18174 -0.0167,-0.026 -0.0833,0 0.013,-0.0371 -0.059,0 -0.0451,0.10942 0.0347,0.11127 -0.0412,0.16135 0.006,0.0723 0.12129,0.0853 -0.0519,0.0686 -0.0868,0.0186 0.0519,0.0519 -0.0167,0.17247 0.0519,-0.0185 -0.0519,0.28393 -0.0694,-0.0964 -0.0618,0 -0.025,0.0723 0.025,0 -0.007,0.0834 0.0347,0.0278 0.12129,-0.0371 -0.0519,0.46661 -0.0167,-0.0186 -0.0167,0.0519 0.0519,0.0186 0.0167,0.31193 -0.0347,0.0352 0.0167,0.17247 0.0204,0.0389 -0.0204,0.41171 0.049,0.47199 -0.066,0.22162 -0.0868,0.0519 0.0347,0.0352 -0.0521,0.13909 0.0553,0.0371 -0.004,0.0668 0.11813,0.38574 -0.0779,0.0519 -0.0742,-0.0185 -0.0111,-0.12797 -0.2226,-0.11127 -0.0714,-0.0631 -0.0955,-0.0204 -0.0529,0.0853 -0.0744,0.0241 -0.15078,-0.0612 -0.0851,0.0427 -0.18527,-0.0186 -0.0794,0.0538 -0.13779,0.0204 -0.0317,0.0427 -0.18027,-0.10571 -0.20118,0.0185 -0.21201,-0.33901 -0.11647,0.0204 -0.0847,-0.0946 -0.0427,0.0315 0.0319,0.12796 -0.14799,-0.0426 -0.22274,-0.10571 -0.1925,-0.0315 -0.0864,-0.0519 0,-0.0742 0.18156,-0.17062 -0.004,-0.0538 -0.0818,-0.0742 -0.0406,-0.11683 -0.0959,0.0631 -0.0319,-0.0742 0,-0.0742 0.0401,-0.0538 -0.0562,-0.11684 0.0781,-0.0427 0.15004,0.0204 0.0326,-0.0426 -0.0734,-0.19065 0.12722,-0.31806 0.35012,0.0427 0.0529,-0.10571 0.0744,-0.0742 -0.0111,-0.13724 -0.20122,-0.17062 -0.0213,-0.12796 0.0742,-0.1595 -0.053,-0.20122 -0.10608,0.0315 -0.0213,-0.10571 0.15931,-0.12796 0.074,0.0204 0.0846,-0.14837 0.064,-0.0185 0.12703,-0.0853 0.13798,0.0426 0.0317,-0.0204 -0.0423,-0.0946 0.0423,-0.0631 -0.0111,-0.0631 -0.0423,-0.0631 0.0634,-0.063 0.14837,-0.0853 0.10311,0.0742 0.52208,-0.42395 0.0953,-0.13724 -0.18008,-0.0185 0.013,-1.03336 0.20859,0.0575 0.22455,0.1428 0.61297,0 0.21307,0.17989 0.15763,-0.0352 0.0597,0 z m -5.44945,-0.47737 m 1.41749,1.56952 0.10516,0 0.23076,0.0797 0.18572,-0.0408 0.0321,-0.0946 -0.1059,-0.0742 -0.21188,-0.0186 -0.0111,-0.063 -0.16969,-0.0946 0.0529,-0.0538 -0.0428,-0.0538 -0.11721,-0.0538 -0.13909,-0.19065 -0.0644,-0.0946 0.007,-0.0872 0,-0.10385 -0.10923,-0.0334 0,-0.11498 0.0148,-0.11684 -0.12573,-0.0315 -0.0456,-0.0946 -0.13464,-0.20122 0.50001,-0.4347 0.10682,0.12796 0.10627,-0.0946 -0.0313,-0.0427 0.0742,-0.17989 0.0425,-0.23312 -0.10608,-0.0185 -0.0738,-0.0631 -0.0849,0.0742 -0.0851,-0.0186 0.021,-0.17989 0.16932,-0.19084 0.23249,-0.12796 0.12574,-0.36053 0.17766,-0.10571 0.17266,0.0186 0,-0.0909 0.16395,0.0297 0.21679,0.10942 0.10238,0.47365 0.19689,0.57065 0.17137,0.24276 0.0977,0.20641 0.12166,0.1224 0.47369,0.13353 0.17006,0.14651 0.10108,0.0241 -8e-4,1.02835 0.18008,0.0186 -0.0953,0.13724 -0.52209,0.42395 -0.10312,-0.0742 -0.14836,0.0853 -0.0636,0.063 0.0423,0.0631 0.0111,0.063 -0.0423,0.0631 0.0423,0.0946 -0.16951,-0.0204 -0.12703,0.0853 -0.0638,0.0185 -0.0846,0.14837 -0.074,-0.0204 -0.15912,0.12796 0.0213,0.10571 0.10608,-0.0315 0.053,0.20122 -0.0742,0.1595 0.0213,0.12796 0.20125,0.16877 0.0111,0.13723 -0.0742,0.0742 -0.0529,0.1057 -0.34993,-0.0426 -0.12704,0.31806 0.074,0.19065 -0.0317,0.0426 -0.14818,-0.0204 -0.0746,0.0426 0.0636,0.11684 -0.0319,0.0538 -0.25431,-0.0185 -0.0111,0.11127 -0.102,0 -0.059,-0.0927 -0.0299,-0.17803 0.0213,-0.17062 -0.0425,-0.0964 0.0213,-0.2231 -0.15893,-0.28653 -0.0211,-0.47699 -0.1365,-0.1595 -0.15152,-0.12425 -0.0111,-0.1224 0,-0.13539 -0.004,-0.15949 0.11053,-0.10571 -0.13687,-0.0853 0.048,-0.21197 z m -1.37094,-6.24133 0.32787,0.0723 0.13371,0.17062 0.013,0.0964 0.14559,0.13353 0.29153,0.14651 0.0849,0.10942 0.0606,0.12054 0.13372,0.17062 0.13371,0.29135 0.0607,0.24295 0.10923,0.20623 0.18212,0.23089 0.0972,0.18175 0.2113,0.25481 0.12315,0.38557 0,0.0723 -0.1967,-0.0185 -0.19428,0.10571 -0.1237,0.36034 -0.2315,0.12611 -0.16877,0.19083 -0.0208,0.17989 0.0851,0.0186 0.0849,-0.0742 0.074,0.063 0.10608,0.0186 -0.0423,0.23312 -0.074,0.17989 0.0315,0.0426 -0.1059,0.0946 -0.10979,-0.12055 -0.4944,0.42859 0.19083,0.29654 0.14855,0.0315 -0.0193,0.22255 0.0762,0.0426 0,0.10386 -0.013,0.0872 0.0523,0.0946 0.14818,0.19065 0.12166,0.0538 0.0451,0.0538 -0.0517,0.0538 0.17044,0.0946 0.0111,0.0631 0.21215,0.0185 0.10608,0.0742 -0.0317,0.0946 -0.15875,0.0538 -0.2121,-0.0946 -0.18175,0.0315 -0.15726,0.0964 -0.0423,0.21198 0.14818,0.0853 -0.0988,0.10571 0.0671,0.15949 -0.002,0.13538 -0.0412,0.12796 -0.0586,-0.0686 -0.0707,0.0185 -0.0727,0.0427 -0.20357,-0.14837 -0.0389,-0.11684 -0.0742,-0.063 -0.16932,-0.0186 -0.1059,0.0853 -0.16969,-0.0426 0.0317,-0.0853 -0.0528,-0.0538 -0.0848,0.0426 -0.0742,-0.0519 -0.0847,-0.19064 -0.50876,-0.19084 -0.41331,0.0946 -0.25448,0.48757 -0.0848,-0.0427 -0.0317,-0.063 -0.23312,-0.0427 -0.15893,-0.17989 -0.0211,-0.12796 -0.0425,-0.0631 -0.074,-0.0185 -0.15894,-0.23331 0.0212,-0.10571 0.10589,-0.0519 -0.0847,-0.13723 0.0319,-0.12797 0.12703,-0.14836 0.0111,-0.20122 -0.0319,-0.0742 -0.0209,-0.21198 0.10571,-0.21198 -0.0317,-0.12796 -0.41329,-0.46104 -0.34965,-1.54207 0.79475,-1.49422 0.056,-0.11683 0.23065,-0.30304 0.16988,-0.55878 0.13371,-0.0983 0.14558,-0.0241 0.23073,-0.12054 0.37638,-0.0482 0.1823,-0.0723 z m -5.36464,-2.67131 0,0.11869 0.15856,0.1224 0.3989,0.26724 0.52148,0.75277 0.21203,0.0482 0.34291,0.32788 0.0985,0.17062 0.21926,1.03188 0.35252,0.255 0.26742,0.20641 0.20649,0.0946 0.25521,0.16691 0.0256,0 0.0352,0.0649 0.51,0.2435 0.0289,0.0742 -0.79475,1.49218 0.34966,1.54095 -0.39742,-0.11127 -0.28604,0.0315 -0.28627,0.4449 -0.0953,0.0186 -0.12722,-0.0482 -0.0796,-0.12796 -0.19074,-0.0315 -0.14299,0.0797 -0.0636,-0.0185 -0.0479,-0.0797 -0.17488,0.11128 -0.27012,-0.0797 -0.14299,-0.2066 -0.1907,-0.0185 -0.30211,-0.20994 -0.0636,0.10757 -0.1,0 -0.0402,0.16505 -0.0768,0.0649 0,0.1836 -0.29925,0.0241 -0.028,0.0964 0.14503,0.232 -0.10942,0.1836 -0.0898,0 -0.006,0.37537 -0.23394,0.13723 -0.47239,-0.0538 0,-0.2001 -0.0467,-0.1187 -0.10033,-0.0315 -0.0421,-0.1428 -0.0927,-0.12797 -0.3961,-0.0315 -0.0948,-0.63592 -0.1428,-0.1595 0.0167,-0.20678 -0.20663,-0.12796 -0.0634,-0.0946 -0.15893,-0.0315 -0.0953,0.0946 -0.0317,-0.0631 -0.0953,0.0185 -0.0953,-0.28616 0.0794,-0.11127 -0.0477,-0.15949 0.0167,-0.14281 -0.12703,-0.0797 -0.0148,-0.12797 -0.15894,-0.17432 -0.22251,-0.5089 0.0953,-0.11127 0.19081,-0.0185 0.25434,0.0946 0.0953,-0.0946 -0.0636,-0.36554 0.0794,-0.25444 -0.11128,-0.81063 0.12723,-0.0315 0.0477,-0.1428 0.0477,-0.58827 -0.0796,-0.71548 -0.0636,-0.11128 -0.0953,-0.74701 -0.0796,-0.0482 0.041,-0.1428 0.0551,-0.53282 0.4888,0 0,-0.53856 1.37575,0 0.37394,0.19454 0.2356,0.0186 0.0462,0.0241 z m -9.61754,-0.66412 0.0293,0.0594 0.34671,0.31193 0.13872,0.0186 0.38143,0.34699 0.22537,0.0519 0.0868,-0.0872 -0.0347,0 0.0347,-0.0185 0.0707,0 0.27625,0.16876 0.0167,0.19566 -0.0443,0 0.18305,0.0779 0.24276,0.0779 0.0521,-0.0222 -0.0695,-0.0371 0.0237,-0.0185 0.0759,0.13724 0,-0.0593 0.0775,0 0.0684,0.0872 0,0.0872 -0.0445,0.13909 -0.013,0.0686 -0.0503,0.17247 0.006,0.15579 0.21292,0.36405 0,0.209 0.0523,0 0.074,0.10386 -0.0148,0.38148 0.0877,0.0186 0.0873,0.26019 0.20825,0.29469 -0.0517,0.15578 0.007,0.0705 0.0599,0.0519 0,-0.0427 0.10868,0 0.0595,0.0686 -0.0545,0.13909 0.0321,0.0686 0,0.2079 0.0777,0.0185 0.14262,0.19083 0.10775,0.0519 0,0.0797 -0.0308,-0.0631 -0.0386,0.0186 0.19757,0.24258 0.0727,0.17247 0.29647,0.13909 -0.0167,0.0519 0.11777,0.19825 0.24691,0.3392 0.13872,-0.0186 0.12148,0.17248 0.0347,-0.0686 -0.0347,-0.0186 0.0519,-0.10385 0.0349,0.0872 0.0221,0 0.0299,0 0.1734,0.0872 -0.006,-0.0352 0.0814,0.0352 0,0.0315 -0.10942,0.0204 0,0.11499 0.0881,0 -0.0449,0.0519 0.021,0.0186 -0.0677,0.0352 0.0529,0.1632 0.0186,0.23275 0.0855,0 0.0358,0.10941 -0.0584,0 0.0931,0.0334 0.10404,0.14465 0.29472,0.076 0.11981,0 0.0883,0.22737 -0.0866,-0.0686 0.15597,0.32955 0.15615,0.10386 0.0519,-0.0352 0.10274,0 -0.0371,-0.0482 0.0657,-0.0352 0,0.063 0.0703,0.0278 0.0239,0.0575 -0.0473,0 0.22075,0.18898 0.0345,0.10757 -0.0167,0.15021 0.12129,-0.0556 0.55398,-0.30396 0.23829,-0.22348 0.11127,-0.27058 -0.0317,-0.063 -0.0953,0.0185 -0.0953,-0.28616 0.0794,-0.11127 -0.0477,-0.15949 0.0167,-0.1428 -0.12703,-0.0797 -0.0167,-0.12796 -0.15894,-0.17433 -0.12722,-0.2704 -0.0953,-0.23849 0.0953,-0.11128 0.19081,-0.0185 0.25436,0.0946 0.0953,-0.0946 -0.0636,-0.36553 0.0796,-0.25445 -0.11127,-0.81081 0.12722,-0.0315 0.0477,-0.1428 0.0477,-0.58808 -0.0796,-0.71549 -0.0636,-0.11127 -0.0953,-0.74721 -0.0794,-0.0482 0.0477,-0.1428 0.0618,-0.53263 -2.73223,0 -3.62032,-1.99087 -0.36792,0.51408 -0.16024,0.0297 -0.13965,0.29581 0.058,0.11127 -0.004,0.0909 -0.0401,0.076 z m 1.78023,4.39456 -0.0571,-0.0185 -0.12407,0.0445 -0.004,-0.16506 -0.0579,-0.0686 -0.0608,0.0186 0.006,0.0705 -0.0679,-0.0185 -0.0341,-0.0686 0.0186,-0.20827 -0.0864,-0.10385 -0.0167,-0.10386 -0.0627,-0.12611 -0.37065,-0.35978 -0.13854,-0.22533 -0.0694,-0.0352 -0.0521,0.0352 -0.0866,-0.0686 -0.0167,-0.15578 -0.13872,-0.12055 -0.12129,-0.27744 0.0868,-0.36424 -0.0695,-0.22533 0.0167,-0.36405 -0.13872,-0.10385 0.0347,-0.0872 -0.0694,-0.13909 0.0868,-0.48552 0.0866,-0.13909 -0.0417,-0.16506 -0.0523,-0.0185 -0.13167,-0.19881 -0.0465,-0.14651 0.0595,-0.0278 0.0397,-0.076 0.007,-0.0797 -0.0636,-0.12426 0.1389,-0.29654 0.15894,-0.0315 0.3657,-0.51835 -0.49426,-0.26539 0.0732,-0.21234 0,-0.19158 -2.69636,0 -0.006,0.1224 0.0475,0.13909 0.0191,0.17248 -0.0337,0.0519 -0.002,0.0352 0.0349,0.0519 -0.0148,0.0872 0.0695,-0.0185 0.0694,0.12054 -0.0167,0.0352 -0.0347,-0.0185 0.0694,0.36405 0.0519,0.10386 0.10404,0.0872 0.0347,0.29488 0.0694,0.0352 0.0347,0.10385 0.15596,0.12055 -0.0521,0.12054 -0.12296,-0.0185 0.0675,0.12054 0,0.0964 -0.0276,0.0427 0.0762,0.12054 0.12481,0.0686 0.15764,0.31212 0.0185,0.15579 -0.0517,0.15578 0.0868,0.0185 0.20827,0.22533 -0.0354,0.47662 0.0356,0 0.0521,0.0186 0.0254,-0.0204 0.009,0.0204 -0.0347,0.0519 0.12147,0.0519 0.0519,0.19084 -0.0519,0.36405 0.0866,0.0352 0.0167,0.22551 0.13872,0.10385 0.0347,0.0872 0.0695,0.0185 0.26003,0.20809 0.0347,0.0872 0.27742,0.0872 0.24278,0.34681 0.0695,0.0352 0.0866,0.24277 0.12129,0.0352 0.17118,0.31212 0.10181,0.0519 0,0.0964 0.10516,0.11127 -0.14577,0.31212 0.0746,0.10386 -0.0532,0.20808 -0.0534,0.0186 0,-0.0501 -0.0664,0.0519 1.69197,0.10571 0.0221,-0.23089 -0.10033,-0.10386 0.0365,-0.20789 -0.17247,-0.0186 -0.10348,-0.0686 z m 0.60692,1.61254 0.0868,0.0186 0.1734,0.1224 0.0347,0.26019 0.0925,0.13909 -0.0462,0.0186 0,0.0445 0.32349,0.14651 -0.0983,0.12055 0.19358,0.19064 0.0189,-0.0352 0.33012,0.24257 -0.0167,0.20809 0.1389,0.0872 -0.0586,0.12055 0.0801,0.10385 0,0.12797 0.0734,0.1836 -0.0475,0.19065 0.0369,0.15578 0.0358,0.0185 -0.0167,0.0686 0.087,0.0872 0.0523,0.19083 0.1734,0.0686 -0.0167,0.13909 0.0866,0.15578 0.0347,0.17248 0.0519,0.12054 0.12129,0.10386 0.0695,0.13909 0.0167,0.15578 -0.10404,0.27726 0.0519,0.27744 0.0694,0.12055 0.12129,0.0872 0.11647,0.0186 0.0567,0.12055 0.12128,-0.0872 -0.0347,-0.19083 0.10404,-0.0186 0.0866,0.13909 0.15597,0.12055 0.0519,0.15578 0.0347,0.0352 0.12147,-0.0352 0.0347,0.0519 -0.0662,0.12055 0.14169,0.17432 0,0.16691 0.25588,0.12797 0.0772,0.20808 -0.0308,0.24295 -0.102,0.13909 -0.15504,0.0686 -0.0862,0.10756 -0.19015,0.12426 -0.16802,0 -0.0922,-0.14651 -0.0866,-0.46809 -0.15597,-0.31212 -0.38148,-0.24277 -0.45084,-0.52001 -0.46808,-0.31213 -0.1734,-0.19064 -0.0519,-0.15579 -0.0347,-0.0185 -0.0347,0.0519 -0.10405,-0.0445 0.0347,0.0612 -0.0627,0 -0.007,-0.1595 -0.16283,-0.28894 -0.007,0.13353 -0.10626,-0.0185 -0.0642,-0.15579 0.0397,-0.10385 0,-0.0816 -0.0256,0 0.013,-0.19343 0.0885,-0.12055 0.0284,-0.47569 -0.0299,-0.0705 -0.0148,-0.11313 -0.13854,-0.36423 -0.0519,-0.0872 -0.0519,0.0185 -0.0167,-0.22533 -0.0864,-0.0519 -0.0393,0.0352 -0.0742,-0.0519 0,-0.0408 -0.15022,-0.0185 -0.11944,-0.12055 0.0186,-0.0352 -0.35374,-0.28671 -0.0271,-0.0426 -0.13853,-0.0686 -0.0167,-0.0352 -0.1543,-0.10386 -0.0538,-0.0389 -0.12129,0.13353 -0.076,0 -0.13186,-0.12982 -0.13872,-0.23386 -0.18249,0 -0.18156,-0.25055 -0.0695,-0.0352 -0.0519,0.0352 -0.15597,-0.0705 -0.0167,-0.0686 -0.0523,-0.0186 -0.0347,-0.24258 -0.22533,-0.15578 -0.0946,-0.1224 -0.0946,-0.0519 0,-0.0408 -0.026,0 -0.0399,-0.0686 -0.0632,-0.0185 -0.0148,-0.1632 0.0551,0.0612 0.18212,0 0.25129,0.10942 0.11128,0 0.21815,-0.1187 0.02,0 0.0593,-0.10385 0.0805,-0.0612 0.699,0.0519 0.98093,0.0519 0.0647,0.0371 -0.0495,0.21531 z"
       inkscape:connector-curvature="0" />
  </g>
</svg>
