<?xml version="1.0" encoding="UTF-8" standalone="no"?>
<!-- Created with Inkscape (http://www.inkscape.org/) -->

<svg
   xmlns:dc="http://purl.org/dc/elements/1.1/"
   xmlns:cc="http://creativecommons.org/ns#"
   xmlns:rdf="http://www.w3.org/1999/02/22-rdf-syntax-ns#"
   xmlns:svg="http://www.w3.org/2000/svg"
   xmlns="http://www.w3.org/2000/svg"
   xmlns:sodipodi="http://sodipodi.sourceforge.net/DTD/sodipodi-0.dtd"
   xmlns:inkscape="http://www.inkscape.org/namespaces/inkscape"
   width="14.111111mm"
   height="14.111111mm"
   viewBox="0 0 49.999998 49.999998"
   id="svg4304"
   version="1.1"
   inkscape:version="0.91 r13725"
   sodipodi:docname="salaespera.svg">
  <defs
     id="defs4306" />
  <sodipodi:namedview
     id="base"
     pagecolor="#ffffff"
     bordercolor="#666666"
     borderopacity="1.0"
     inkscape:pageopacity="0.0"
     inkscape:pageshadow="2"
     inkscape:zoom="3.959798"
     inkscape:cx="50.417718"
     inkscape:cy="46.064353"
     inkscape:document-units="px"
     inkscape:current-layer="layer1"
     showgrid="false"
     fit-margin-top="0"
     fit-margin-left="0"
     fit-margin-right="0"
     fit-margin-bottom="0"
     inkscape:window-width="1920"
     inkscape:window-height="1027"
     inkscape:window-x="-8"
     inkscape:window-y="-8"
     inkscape:window-maximized="1" />
  <metadata
     id="metadata4309">
    <rdf:RDF>
      <cc:Work
         rdf:about="">
        <dc:format>image/svg+xml</dc:format>
        <dc:type
           rdf:resource="http://purl.org/dc/dcmitype/StillImage" />
        <dc:title></dc:title>
      </cc:Work>
    </rdf:RDF>
  </metadata>
  <g
     inkscape:label="Capa 1"
     inkscape:groupmode="layer"
     id="layer1"
     transform="translate(-413.15637,-427.3622)">
    <g
       id="g4366">
      <path
         inkscape:connector-curvature="0"
         id="path10155-9"
         d="m 438.15637,427.3622 c -13.78876,0 -25,11.21134 -25,25.0001 0,13.78875 11.21124,24.9999 25,24.9999 13.78876,0 25,-11.21115 25,-24.9999 0,-13.78876 -11.21124,-25.0001 -25,-25.0001 z m 0,2.1278 c 12.65039,0 22.87233,10.22194 22.87233,22.8723 0,12.65035 -10.22194,22.87229 -22.87233,22.87229 -12.65039,0 -22.87233,-10.22194 -22.87233,-22.87229 0,-12.65036 10.22194,-22.8723 22.87233,-22.8723 z"
         style="color:#000000;font-style:normal;font-variant:normal;font-weight:normal;font-stretch:normal;font-size:medium;line-height:normal;font-family:Sans;-inkscape-font-specification:Sans;text-indent:0;text-align:start;text-decoration:none;text-decoration-line:none;letter-spacing:normal;word-spacing:normal;text-transform:none;direction:ltr;block-progression:tb;writing-mode:lr-tb;baseline-shift:baseline;text-anchor:start;display:inline;overflow:visible;visibility:visible;fill:#77c043;fill-opacity:1;stroke:none;stroke-width:2.97000003;stroke-opacity:1;marker:none;enable-background:accumulate" />
      <g
         id="g4333"
         transform="matrix(0.318185,0,0,0.318185,223.54688,662.44703)">
        <path
           inkscape:connector-curvature="0"
           id="path3859"
           d="m 629.66789,-675.95848 c -2.39941,0.01 -5.09615,1.35355 -7.95046,5.01239 -7.16277,9.18175 5.16883,15.88732 5.16883,15.88732 0,0 1.28215,14.67707 2.5028,16.92109 2.32579,4.27582 9.68474,5.16881 9.68474,5.16881 l 4.32547,0 62.16186,0 4.32548,0 c 0,0 7.35892,-0.89299 9.68474,-5.16881 1.22063,-2.24402 2.50279,-16.92109 2.50279,-16.92109 0,0 12.3316,-6.70557 5.16883,-15.88732 -7.02599,-9.00637 -13.08169,-3.98772 -16.15936,0.43527 -2.64319,3.79857 -5.74442,12.67872 -5.76054,12.72482 -0.008,-0.004 -0.1644,-0.0648 -0.27203,-0.1088 -1.31199,-0.58488 -11.54653,-4.85863 -30.55724,-4.67233 -0.01,-10e-5 -0.018,10e-5 -0.0272,0 -19.01073,-0.1862 -29.24526,4.08745 -30.55725,4.67233 -0.1054,0.043 -0.25592,0.1048 -0.26524,0.1088 -0.012,-0.0342 -3.12235,-8.92369 -5.7673,-12.72482 -1.8274,-2.62615 -4.70207,-5.46192 -8.20892,-5.44766 z"
           style="fill:#77c043;fill-opacity:1;stroke:none" />
        <path
           sodipodi:nodetypes="czcscsccsccc"
           inkscape:connector-curvature="0"
           id="path3881"
           d="m 644.43858,-661.58544 c 0,0 9.21073,-3.83823 30.0039,-3.83823 20.79317,0 29.48917,4.4611 29.48917,4.4611 0,0 2.32067,-9.05603 7.78052,-14.0099 4.31047,-3.91102 8.95045,-2.85635 8.95045,-2.85635 0,0 0.58917,-8.11622 -4.88111,-13.58651 -7.72593,-7.7259 -15.76284,-7.05744 -15.76284,-7.05744 l -50.3536,0 c 0,0 -8.58663,0.25919 -13.29562,4.33357 -8.857,7.66335 -8.0724,16.30346 -8.0724,16.30346 0,0 4.30607,-1.55981 8.93479,3.21447 4.43283,3.32718 5.40326,8.34561 7.20674,13.03583 z"
           style="fill:#77c043;fill-opacity:1;stroke:none" />
        <path
           sodipodi:nodetypes="cacczcc"
           inkscape:connector-curvature="0"
           id="path3902-4"
           d="m 630.36247,-632.96887 c 0,0 2.19673,1.63202 3.48216,2.01312 2.99483,0.88793 9.35827,0.48969 9.35827,0.48969 l 0,5.27763 c 0,0 0.38087,3.15571 -6.3658,3.15571 -6.74667,0 -6.36582,-3.15571 -6.36582,-3.15571 z"
           style="fill:#77c043;fill-opacity:1;stroke:none" />
        <path
           sodipodi:nodetypes="cacczcc"
           inkscape:connector-curvature="0"
           id="path3902-0"
           d="m 718.59792,-632.96887 c 0,0 -2.19674,1.63202 -3.48217,2.01312 -2.99483,0.88793 -9.35826,0.48969 -9.35826,0.48969 l 0,5.27763 c 0,0 -0.38088,3.15571 6.36579,3.15571 6.74668,0 6.36582,-3.15571 6.36582,-3.15571 z"
           style="fill:#77c043;fill-opacity:1;stroke:none" />
      </g>
    </g>
  </g>
</svg>
